<svg width="10" height="10" viewBox="0 0 10 10" fill="none" xmlns="http://www.w3.org/2000/svg">
<path d="M9.56843 0.381832C9.47664 0.322258 9.37401 0.281352 9.26641 0.261451C9.15881 0.24155 9.04834 0.243044 8.94131 0.265847C8.83428 0.28865 8.7328 0.332316 8.64265 0.39435C8.55251 0.456385 8.47547 0.535571 8.41593 0.627387L3.74649 7.82489L1.46926 5.71933C1.38892 5.64504 1.29473 5.58731 1.19208 5.54942C1.08942 5.51153 0.980305 5.49424 0.870964 5.49852C0.65014 5.50717 0.441796 5.60318 0.291764 5.76544C0.141733 5.9277 0.0623038 6.14292 0.0709514 6.36374C0.0795989 6.58457 0.175614 6.79291 0.337875 6.94294L3.32788 9.70739C3.32788 9.70739 3.41371 9.78128 3.45343 9.80711C3.54523 9.86673 3.64788 9.90767 3.75551 9.92759C3.86315 9.94752 3.97365 9.94603 4.08071 9.92323C4.18777 9.90043 4.28928 9.85674 4.37945 9.79469C4.46962 9.73263 4.54667 9.65341 4.60621 9.56155L9.81399 1.53433C9.87356 1.44254 9.91447 1.33991 9.93437 1.23231C9.95427 1.12471 9.95278 1.01424 9.92997 0.90721C9.90717 0.800184 9.8635 0.698699 9.80147 0.608553C9.73943 0.518407 9.66025 0.441366 9.56843 0.381832Z" fill="black"/>
</svg>
