<svg width="31" height="32" viewBox="0 0 31 32" fill="none" xmlns="http://www.w3.org/2000/svg">
<path d="M23.4438 8.96019L24.9292 7.47485C25.1876 7.21644 25.1876 6.82894 24.9292 6.57076C24.6708 6.31235 24.2833 6.31235 24.0251 6.57076L22.5398 8.0561C22.2813 8.31451 22.2813 8.70201 22.5398 8.96019C22.9273 9.28325 23.3148 9.0895 23.4438 8.96019Z" fill="#262626"/>
<path d="M26.0915 16.6461H28.2227C28.6102 16.6461 28.8686 16.3877 28.8686 16.0002C28.8686 15.6127 28.6102 15.3542 28.2227 15.3542H26.0915C25.704 15.3542 25.4456 15.6127 25.4456 16.0002C25.4458 16.3877 25.7686 16.6461 26.0915 16.6461Z" fill="#262626"/>
<path d="M23.4438 23.0398C23.1854 22.7813 22.7979 22.7813 22.5398 23.0398C22.2813 23.2982 22.2813 23.6857 22.5398 23.9438L24.0251 25.4292C24.4126 25.752 24.8001 25.5583 24.9292 25.4292C25.1876 25.1708 25.1876 24.7833 24.9292 24.5251L23.4438 23.0398Z" fill="#262626"/>
<path d="M15.5 31.5C24.025 31.5 31 24.525 31 16C31 7.475 24.025 0.5 15.5 0.5C6.975 0.5 0 7.475 0 16C0 24.525 6.975 31.5 15.5 31.5ZM15.5 1.79148C23.3148 1.79148 29.7085 8.18523 29.7085 16C29.7085 23.8148 23.3148 30.2085 15.5 30.2085C7.68523 30.2085 1.29148 23.8148 1.29148 16C1.29148 8.18523 7.68523 1.79148 15.5 1.79148Z" fill="#262626"/>
<path d="M19.8273 21.2313C20.2148 21.6188 20.6023 21.3604 20.7314 21.2313C20.9898 20.9729 20.9898 20.5854 20.7314 20.3272L16.1461 15.7416V10.1877C16.1461 9.80016 15.8877 9.54175 15.5002 9.54175C15.1127 9.54175 14.8542 9.80016 14.8542 10.1877V16.0002C14.8542 16.1939 14.9189 16.323 15.048 16.4523L19.8273 21.2313Z" fill="#262626"/>
<path d="M15.4999 6.05403C15.8874 6.05403 16.1458 5.79562 16.1458 5.40812V3.21244C16.1458 2.82494 15.8874 2.56653 15.4999 2.56653C15.1124 2.56653 14.854 2.82494 14.854 3.21244V5.34369C14.854 5.73119 15.1124 6.05403 15.4999 6.05403Z" fill="#262626"/>
<path d="M15.4999 29.4336C15.8874 29.4336 16.1458 29.1752 16.1458 28.7877V26.6564C16.1458 26.2689 15.8874 26.0105 15.4999 26.0105C15.1124 26.0105 14.854 26.2689 14.854 26.6564V28.7877C14.854 29.1105 15.1124 29.4336 15.4999 29.4336Z" fill="#262626"/>
<path d="M6.91015 25.4938L8.3955 24.0084C8.6539 23.75 8.6539 23.3625 8.3955 23.1043C8.13709 22.8459 7.74959 22.8459 7.4914 23.1043L6.00606 24.5897C5.74765 24.8481 5.74765 25.2356 6.00606 25.4938C6.39356 25.8166 6.78106 25.6229 6.91015 25.4938Z" fill="#262626"/>
<path d="M4.84381 15.354H2.71256C2.32506 15.354 2.06665 15.6124 2.06665 15.9999C2.06665 16.3874 2.32506 16.6458 2.71256 16.6458H4.84381C5.23131 16.6458 5.48971 16.3874 5.48971 15.9999C5.48971 15.6124 5.23131 15.354 4.84381 15.354Z" fill="#262626"/>
<path d="M7.55635 8.96019C7.68544 9.08929 8.1376 9.34769 8.46044 8.96019C8.71885 8.70179 8.71885 8.31429 8.46044 8.0561L6.9751 6.57076C6.71669 6.31235 6.32919 6.31235 6.071 6.57076C5.8126 6.82917 5.8126 7.21667 6.071 7.47485L7.55635 8.96019Z" fill="#262626"/>
</svg>
