<svg width="31" height="29" viewBox="0 0 31 29" fill="none" xmlns="http://www.w3.org/2000/svg">
<path d="M30.9583 24.1807L26.267 13.0497C26.1956 12.8817 26.0369 12.7678 25.8559 12.7549C24.183 12.7225 22.5136 12.9209 20.894 13.3448C22.0287 11.5519 22.6905 9.49659 22.8169 7.37393C22.8169 4.73944 21.4226 2.30498 19.1591 0.987914C16.8956 -0.329305 14.1069 -0.329305 11.8434 0.987914C9.5801 2.30513 8.18562 4.73965 8.18562 7.37393C8.31241 9.49722 8.97564 11.5527 10.1123 13.3448C8.48975 12.9205 6.81728 12.7222 5.14157 12.7549C4.96222 12.7682 4.80554 12.8823 4.73694 13.0497L0.0372052 24.1807C-0.0316021 24.3407 -0.00351887 24.5263 0.109423 24.6583C0.211535 24.7997 0.387471 24.8658 0.556583 24.8266C0.646257 24.8128 9.8824 23.253 15.1659 28.8461C15.2041 28.8833 15.2462 28.916 15.2915 28.9437C15.306 28.9437 15.3118 28.9583 15.319 28.9583C15.4362 29.0139 15.5718 29.0139 15.6889 28.9583L15.7098 28.9437C15.7573 28.9193 15.7999 28.8861 15.8356 28.8461H15.8428C21.1161 23.2671 30.3628 24.8127 30.4522 24.8266C30.6207 24.8652 30.7958 24.7991 30.8979 24.6583C31.0077 24.5243 31.0309 24.3382 30.9579 24.1807H30.9583ZM15.499 0.95221C17.1887 0.953828 18.8091 1.63083 20.0047 2.83462C21.2001 4.03863 21.8734 5.67111 21.8768 7.37456C21.8768 11.9279 16.8447 17.4231 15.4988 18.8131C14.1609 17.4216 9.12754 11.9275 9.12754 7.37456H9.12774C9.12915 5.67168 9.80077 4.0392 10.9948 2.83483C12.189 1.63062 13.8084 0.952987 15.4977 0.950606L15.499 0.95221ZM15.499 21.1316C11.9831 21.1193 9.83898 19.108 13.5398 18.082C14.4255 19.0935 15.0952 19.7416 15.1788 19.8245H15.179C15.3628 19.9948 15.6452 19.9948 15.829 19.8245C15.912 19.7414 16.5817 19.081 17.4666 18.0689C21.1647 19.1204 19.0199 21.112 15.4976 21.1302L15.499 21.1316ZM3.69727 23.6597C2.6649 23.6597 1.80673 23.7325 1.22173 23.7865L5.4817 13.6991C7.31266 13.706 9.13103 14.0051 10.869 14.5855C11.4877 15.5173 12.1533 16.4167 12.8637 17.2796C8.72809 18.7505 10.8778 21.9981 15.0309 22.0571L15.0307 27.4254C11.4844 24.2789 6.8049 23.6599 3.69732 23.6599L3.69727 23.6597ZM15.9715 27.4126L15.9717 22.0578C20.1203 21.9982 22.2751 18.7526 18.1388 17.2803C18.7724 16.4931 19.4695 15.5793 20.1311 14.5862C21.8698 14.0026 23.6898 13.7033 25.5225 13.6992L29.7736 23.7892C27.4251 23.5198 20.6913 23.225 15.9716 27.4127L15.9715 27.4126Z" fill="#262626"/>
<path d="M19.0954 7.44373C19.0954 6.14975 18.4105 4.95403 17.299 4.30694C16.1872 3.66006 14.8174 3.66006 13.7058 4.30694C12.5941 4.95403 11.9092 6.14975 11.9092 7.44373C11.9092 8.7377 12.5941 9.93343 13.7058 10.5803C14.8174 11.2274 16.1872 11.2274 17.299 10.5803C18.4106 9.93343 19.0954 8.7377 19.0954 7.44373ZM12.8495 7.44373H12.8497C12.8651 6.49898 13.3739 5.6327 14.1881 5.16493C15.0024 4.697 16.0013 4.697 16.8155 5.16493C17.6298 5.63266 18.1386 6.49898 18.154 7.44373C18.1385 8.38828 17.6298 9.25455 16.8155 9.72253C16.0013 10.1905 15.0024 10.1905 14.1881 9.72253C13.3739 9.2546 12.8651 8.38833 12.8497 7.44373H12.8495Z" fill="#262626"/>
</svg>
