<svg width="31" height="30" viewBox="0 0 31 30" fill="none" xmlns="http://www.w3.org/2000/svg">
<path d="M1.74243 0.000712984C1.26541 0.00254398 0.830348 0.227499 0.508549 0.551598C0.206586 0.966981 -0.0181529 1.38342 0.00115637 1.80536C0.297715 10.7069 3.05479 17.7863 8.01616 22.617C12.9822 27.4523 20.1342 30.0152 29.1318 29.9998C29.1395 30.0001 29.1473 30.0001 29.155 29.9998C29.6294 29.9716 30.0619 29.7411 30.3889 29.4139C30.7158 29.0866 30.9519 28.6535 30.9539 28.1716C30.9691 26.0392 30.9848 23.905 31 21.7734C30.9866 21.306 30.7511 20.8825 30.4234 20.5665C30.0959 20.2506 29.6559 20.0235 29.1779 20.0274C27.1175 20.0358 24.4619 19.3212 22.3393 18.7852C22.2183 18.7543 22.0832 18.7912 21.9933 18.8788L18.0608 22.7693C13.1959 19.8579 11.1668 17.8545 8.22361 13.0549L12.1445 9.17618C12.2387 9.08514 12.2799 8.94102 12.2483 8.81284C11.6878 6.68072 10.6816 3.7775 10.8527 1.51245C10.776 1.07456 10.3875 0.677744 10.1031 0.457768C9.76045 0.197238 9.32202 -0.014642 8.82287 0.000793194H1.74171L1.74243 0.000712984ZM1.74243 0.750641H8.8236C9.15826 0.760842 9.42933 0.921191 9.66537 1.05538C9.90298 1.23613 10.0724 1.47495 10.1267 1.59449C9.98664 4.01644 10.9291 6.76457 11.4759 8.78975L7.48572 12.727C7.36474 12.845 7.3395 13.0511 7.42806 13.1958C10.5517 18.3407 12.7175 20.4801 17.9223 23.5665C18.06 23.6449 18.2474 23.6198 18.3604 23.5079L22.3622 19.5588C24.4435 20.0875 27.024 20.7864 29.1896 20.7775C29.4265 20.7775 29.7043 20.9012 29.9161 21.1055C30.1251 21.3072 30.2528 21.5672 30.2621 21.7736C30.2461 24.0015 30.2296 26.2643 30.216 28.1718C30.215 28.3965 30.0847 28.6601 29.87 28.8749C29.6553 29.0896 29.3629 29.2348 29.1088 29.25C20.2608 29.261 13.3239 26.7527 8.52363 22.0782C3.71871 17.3999 1.02728 10.5276 0.739284 1.75866C0.757304 1.46413 0.901461 1.27369 1.0276 1.09085C1.23999 0.876881 1.51647 0.819332 1.74251 0.751063L1.74243 0.750641Z" fill="#262626"/>
</svg>
