<svg width="330" height="64" viewBox="0 0 330 64" fill="none" xmlns="http://www.w3.org/2000/svg">
<path d="M204.619 58.6758H195.068L193.011 63.2687H191.125L198.962 46.0762H200.75L208.586 63.2687H206.676L204.619 58.6758ZM203.958 57.2022L199.843 47.9674L195.729 57.2022H203.958ZM231.771 46.0762L224.179 63.2687H222.391L214.799 46.0762H216.758L223.322 61.0091L229.934 46.0762H231.771ZM253.361 61.6968V63.2687H241.238V46.0762H252.993V47.6481H243.05V53.7637H251.916V55.311H243.05V61.6968H253.361ZM278.927 46.0762V63.2687H277.433L266.413 49.3182V63.2687H264.601V46.0762H266.094L277.139 60.0267V46.0762H278.927ZM298.408 63.4161C296.187 63.4161 294.457 62.7775 293.216 61.5003C291.975 60.2232 291.355 58.3647 291.355 55.925V46.0762H293.167V55.8514C293.167 57.8489 293.616 59.339 294.514 60.3214C295.412 61.3038 296.71 61.7951 298.408 61.7951C300.122 61.7951 301.428 61.3038 302.326 60.3214C303.225 59.339 303.673 57.8489 303.673 55.8514V46.0762H305.437V55.925C305.437 58.3647 304.816 60.2232 303.575 61.5003C302.351 62.7775 300.629 63.4161 298.408 63.4161ZM330 61.6968V63.2687H317.877V46.0762H329.633V47.6481H319.69V53.7637H328.555V55.311H319.69V61.6968H330Z" fill="#111111"/>
<path d="M14.3267 46.0762V63.2687H12.5389V55.3356H1.81226V63.2687H0V46.0762H1.81226V53.7391H12.5389V46.0762H14.3267ZM26.9017 46.0762H28.714V63.2687H26.9017V46.0762ZM66.7831 61.6968V63.2687H54.6606V46.0762H66.4158V47.6481H56.4728V53.7637H65.3382V55.311H56.4728V61.6968H66.7831ZM92.3493 46.0762V63.2687H90.8553L79.8348 49.3182V63.2687H78.0226V46.0762H79.5164L90.5614 60.0267V46.0762H92.3493ZM104.924 46.0762H111.904C113.716 46.0762 115.317 46.4446 116.704 47.1814C118.092 47.9018 119.169 48.9171 119.936 50.2269C120.704 51.5205 121.087 53.0023 121.087 54.6724C121.087 56.3426 120.704 57.8326 119.936 59.1425C119.169 60.4361 118.092 61.4512 116.704 62.188C115.317 62.9084 113.716 63.2687 111.904 63.2687H104.924V46.0762ZM111.806 61.6968C113.309 61.6968 114.622 61.4021 115.749 60.8126C116.875 60.2068 117.749 59.38 118.369 58.332C118.99 57.2677 119.3 56.0478 119.3 54.6724C119.3 53.297 118.99 52.0854 118.369 51.0374C117.749 49.9732 116.875 49.1463 115.749 48.5568C114.622 47.9509 113.309 47.6481 111.806 47.6481H106.737V61.6968H111.806Z" fill="#111111"/>
<path d="M42.11 56.1958C42.8827 56.1958 43.5091 55.5893 43.5091 54.8411C43.5091 54.0929 42.8827 53.4863 42.11 53.4863C41.3373 53.4863 40.7109 54.0929 40.7109 54.8411C40.7109 55.5893 41.3373 56.1958 42.11 56.1958Z" fill="#111111"/>
<path d="M142.621 37.8359H139.379V63.6338H142.621V37.8359Z" fill="#111111"/>
<path d="M172.777 37.8359H169.535V63.6338H172.777V37.8359Z" fill="#111111"/>
<path d="M147.649 27.5166H144.406V63.6335H147.649V27.5166Z" fill="#111111"/>
<path d="M167.75 27.5166H164.508V63.6335H167.75V27.5166Z" fill="#111111"/>
<path d="M152.676 20.6387H149.434V63.6351H152.676V20.6387Z" fill="#111111"/>
<path d="M162.723 20.6387H159.48V63.6351H162.723V20.6387Z" fill="#111111"/>
<path d="M157.695 0H154.453V63.6347H157.695V0Z" fill="#111111"/>
</svg>
