<svg width="40" height="40" viewBox="0 0 40 40" fill="none" xmlns="http://www.w3.org/2000/svg">
<circle cx="20" cy="20" r="20" transform="rotate(180 20 20)" fill="white" fill-opacity="0.8"/>
<path d="M17.7955 25.2045C18.2348 25.6438 18.2348 26.3562 17.7955 26.7955C17.3562 27.2348 16.6438 27.2348 16.2045 26.7955L10.2045 20.7955C9.76517 20.3562 9.76517 19.6438 10.2045 19.2045L16.2045 13.2045C16.6438 12.7652 17.3562 12.7652 17.7955 13.2045C18.2348 13.6438 18.2348 14.3562 17.7955 14.7955L13.716 18.875H28.25C28.8713 18.875 29.375 19.3787 29.375 20C29.375 20.6213 28.8713 21.125 28.25 21.125H13.716L17.7955 25.2045Z" fill="black"/>
</svg>
