<svg width="15" height="15" viewBox="0 0 15 15" fill="none" xmlns="http://www.w3.org/2000/svg">
<g clip-path="url(#clip0_204_2181)">
<path d="M7.49805 15C7.3038 15 7.1175 14.9228 6.98015 14.7855C6.84279 14.6481 6.76563 14.4618 6.76562 14.2676V0.732422C6.76562 0.538172 6.84279 0.351877 6.98015 0.214521C7.1175 0.0771657 7.3038 0 7.49805 0C7.6923 0 7.87859 0.0771657 8.01595 0.214521C8.1533 0.351877 8.23047 0.538172 8.23047 0.732422V14.2676C8.23047 14.4618 8.1533 14.6481 8.01595 14.7855C7.87859 14.9228 7.6923 15 7.49805 15Z" fill="black"/>
<path d="M14.2676 8.23242H0.732422C0.538172 8.23242 0.351877 8.15526 0.214521 8.0179C0.0771657 7.88054 0 7.69425 0 7.5C0 7.30575 0.0771657 7.11946 0.214521 6.9821C0.351877 6.84474 0.538172 6.76758 0.732422 6.76758H14.2676C14.4618 6.76758 14.6481 6.84474 14.7855 6.9821C14.9228 7.11946 15 7.30575 15 7.5C15 7.69425 14.9228 7.88054 14.7855 8.0179C14.6481 8.15526 14.4618 8.23242 14.2676 8.23242Z" fill="black"/>
</g>
<defs>
<clipPath id="clip0_204_2181">
<rect width="15" height="15" fill="white"/>
</clipPath>
</defs>
</svg>
