<svg width="50" height="50" viewBox="0 0 50 50" fill="none" xmlns="http://www.w3.org/2000/svg">
<path d="M1.12305 17.9996H6.08102C6.70052 17.9996 7.20444 17.4957 7.20444 16.8762V11.2041C7.20444 10.585 6.70052 10.0811 6.08102 10.0811H1.12305C0.503922 10.0811 0 10.585 0 11.2041V16.8762C0 17.4957 0.503922 17.9996 1.12305 17.9996ZM1.46523 11.5459H5.73922V16.5344H1.46523V11.5459Z" fill="#999999"/>
<path d="M8.99243 17.9996H19.6732C20.2927 17.9996 20.7966 17.4957 20.7966 16.8762V11.2041C20.7966 10.585 20.2927 10.0811 19.6732 10.0811H8.99243C8.37293 10.0811 7.86938 10.585 7.86938 11.2041V16.8762C7.86938 17.4957 8.37331 17.9996 8.99243 17.9996ZM9.33423 11.5459H19.3314V16.5344H9.33423V11.5459Z" fill="#999999"/>
<path d="M22.5846 17.9996H25.3964C26.0159 17.9996 26.5199 17.4957 26.5199 16.8762V15.5052C26.5199 15.1008 26.1918 14.7728 25.7871 14.7728C25.3823 14.7728 25.0546 15.1008 25.0546 15.5052V16.5344H22.9264V11.5459H25.0546V12.5751C25.0546 12.9798 25.3823 13.3075 25.7871 13.3075C26.1918 13.3075 26.5199 12.9798 26.5199 12.5751V11.2041C26.5199 10.585 26.0159 10.0811 25.3964 10.0811H22.5846C21.9651 10.0811 21.4612 10.585 21.4612 11.2041V16.8762C21.4612 17.4957 21.9651 17.9996 22.5846 17.9996Z" fill="#999999"/>
<path d="M1.12305 26.5991H11.805C12.4245 26.5991 12.928 26.0956 12.928 25.4761V19.8036C12.928 19.1845 12.4245 18.6805 11.805 18.6805H1.12305C0.503922 18.6805 0 19.1845 0 19.8036V25.4761C0 26.0956 0.503922 26.5991 1.12305 26.5991ZM1.46523 20.1454H11.4632V25.1343H1.46523V20.1454Z" fill="#999999"/>
<path d="M26.5194 25.4761V19.8036C26.5194 19.1845 26.0155 18.6805 25.396 18.6805H14.7152C14.0957 18.6805 13.5918 19.1845 13.5918 19.8036V25.4761C13.5918 26.0952 14.0957 26.5991 14.7152 26.5991H25.396C26.0151 26.5991 26.5194 26.0952 26.5194 25.4761ZM25.0542 25.1343H15.057V20.1454H25.0542V25.1343Z" fill="#999999"/>
<path d="M1.12305 35.199H6.08102C6.70052 35.199 7.20444 34.695 7.20444 34.0755V28.4035C7.20444 27.784 6.70052 27.28 6.08102 27.28H1.12305C0.503922 27.28 0 27.784 0 28.4035V34.0755C0 34.6947 0.503922 35.199 1.12305 35.199ZM1.46523 28.7453H5.73922V33.7337H1.46523V28.7453Z" fill="#999999"/>
<path d="M8.99243 27.28C8.37293 27.28 7.86938 27.784 7.86938 28.4031V34.0755C7.86938 34.6947 8.37293 35.1986 8.99243 35.1986H19.6732C20.2927 35.1986 20.7966 34.6947 20.7966 34.0755V28.4031C20.7966 27.784 20.2927 27.28 19.6732 27.28H8.99243ZM19.3314 33.7337H9.33423V28.7453H19.3314V33.7337Z" fill="#999999"/>
<path d="M22.5846 35.199H33.2654C33.8845 35.199 34.3884 34.695 34.3884 34.0755V28.4035C34.3884 27.784 33.8845 27.28 33.2654 27.28H22.5846C21.9651 27.28 21.4612 27.784 21.4612 28.4035V34.0755C21.4612 34.6947 21.9651 35.199 22.5846 35.199ZM22.9264 28.7449H32.9236V33.7337H22.9264V28.7449Z" fill="#999999"/>
<path d="M11.805 35.8795H1.12305C0.503922 35.8795 0 36.3834 0 37.0029V42.675C0 43.2945 0.503922 43.7985 1.12305 43.7985H3.01323C3.41797 43.7985 3.74566 43.4704 3.74566 43.0657C3.74566 42.6613 3.41797 42.3332 3.01323 42.3332H1.46523V37.3447H11.4632V42.3332H5.94331C5.53857 42.3332 5.21088 42.6613 5.21088 43.0657C5.21088 43.4704 5.53857 43.7985 5.94331 43.7985H11.805C12.4245 43.7985 12.9284 43.2945 12.9284 42.675V37.0029C12.928 36.3834 12.4245 35.8795 11.805 35.8795Z" fill="#999999"/>
<path d="M25.396 35.8795H14.7152C14.0957 35.8795 13.5918 36.3834 13.5918 37.0029V42.675C13.5918 43.2945 14.0957 43.7985 14.7152 43.7985H25.396C26.0151 43.7985 26.5191 43.2945 26.5191 42.675V37.0029C26.5194 36.3834 26.0151 35.8795 25.396 35.8795ZM25.0542 42.3332H15.057V37.3447H25.0542V42.3332Z" fill="#999999"/>
<path d="M33.8576 37.3447C34.2624 37.3447 34.5901 37.0167 34.5901 36.6123C34.5901 36.2076 34.2624 35.8795 33.8576 35.8795H28.3076C27.6885 35.8795 27.1846 36.3834 27.1846 37.0029V42.675C27.1846 43.2945 27.6885 43.7985 28.3076 43.7985H33.6482C34.0526 43.7985 34.3806 43.4704 34.3806 43.0657C34.3806 42.6613 34.0526 42.3332 33.6482 42.3332H28.6494V37.3447H33.8576Z" fill="#999999"/>
<path d="M46.5703 9.71261C45.6083 8.0761 44.5466 6.69937 43.5002 5.73044C42.2628 4.58489 41.0577 4.00391 39.9182 4.00391C38.7792 4.00391 37.5737 4.58489 36.3362 5.73044C35.2902 6.69899 34.2282 8.0761 33.2662 9.71261C30.6382 14.1823 28.7786 20.6108 30.5089 23.7202C31.141 24.8566 32.4548 25.7797 34.3083 26.3905C35.7087 26.8517 37.4173 27.1309 39.1858 27.1916V28.814C37.8102 29.1184 36.7539 30.2647 36.6021 31.7196C36.6002 31.7318 36.5987 31.7444 36.5975 31.7566C36.5045 32.745 35.7827 40.4007 35.6916 41.3678L35.69 41.3815C35.69 41.3823 35.6893 41.391 35.6889 41.3918L35.6877 41.4048C35.687 41.4128 35.6866 41.4208 35.6862 41.4288C35.6748 41.5574 35.6694 41.6794 35.6694 41.8011C35.6694 44.1441 37.5753 46.0499 39.9182 46.0499C42.2612 46.0499 44.1671 44.1441 44.1671 41.8011C44.1671 41.6794 44.1617 41.5574 44.1503 41.4288C44.1499 41.4208 44.1495 41.4128 44.1487 41.4048L44.1465 41.383C44.1465 41.3803 44.1461 41.3777 44.1457 41.3754C44.1457 41.3727 44.1453 41.3697 44.1453 41.3685L43.2389 31.7566C43.2374 31.7437 43.2359 31.7303 43.234 31.7177C43.0814 30.2635 42.0255 29.118 40.6507 28.814V27.1916C42.4188 27.1309 44.1278 26.8517 45.5281 26.3905C47.3817 25.7797 48.6955 24.8566 49.3276 23.7202C51.0579 20.6108 49.1986 14.1823 46.5703 9.71261ZM39.9182 44.5851C38.3832 44.5851 37.1343 43.3361 37.1343 41.8011C37.1343 41.7172 37.1385 41.6314 37.1472 41.5387C37.148 41.531 37.1488 41.523 37.1492 41.5154L37.6138 36.5872C38.3634 36.789 39.1351 36.8908 39.9182 36.8908C40.7018 36.8908 41.4735 36.789 42.2231 36.5872L42.6866 41.5043C42.687 41.507 42.6873 41.5112 42.6877 41.5154C42.6881 41.523 42.6889 41.531 42.6896 41.5387C42.6984 41.6314 42.7026 41.7168 42.7026 41.8011C42.7022 43.3361 41.4533 44.5851 39.9182 44.5851ZM42.0831 35.1029C41.3823 35.3173 40.6568 35.426 39.9182 35.426C39.1801 35.426 38.4545 35.3176 37.7538 35.1029L37.8392 34.1969C39.1748 34.6451 40.6621 34.6451 41.9976 34.1969L42.0831 35.1029ZM41.7794 31.8936C41.7806 31.9054 41.7821 31.9176 41.784 31.9294L41.8553 32.6878C41.2431 32.943 40.5934 33.0723 39.9182 33.0723C39.243 33.0723 38.5934 32.943 37.9815 32.6878L38.0529 31.9275C38.0548 31.9165 38.0559 31.905 38.0571 31.8936C38.1471 30.9277 38.9474 30.1995 39.9182 30.1995C40.8895 30.1995 41.6894 30.9277 41.7794 31.8936ZM48.0478 23.008C47.1955 24.5396 44.2708 25.5997 40.651 25.7263V24.1371C40.651 23.7324 40.323 23.4047 39.9182 23.4047C39.5139 23.4047 39.1858 23.7324 39.1858 24.1371V25.7263C35.5661 25.5997 32.6413 24.5396 31.7891 23.008C31.1677 21.891 31.1284 19.9452 31.6789 17.5282C32.2045 15.2203 33.2433 12.6423 34.5296 10.4553C36.3378 7.37954 38.4027 5.46913 39.9186 5.46913C41.4342 5.46913 43.4991 7.37954 45.3077 10.4553C46.5936 12.6423 47.6327 15.2203 48.1584 17.5282C48.7081 19.9452 48.6692 21.891 48.0478 23.008Z" fill="#999999"/>
</svg>
