<svg width="54" height="50" viewBox="0 0 54 50" fill="none" xmlns="http://www.w3.org/2000/svg">
<path d="M53.3498 12.8166C53.3039 12.5898 53.1372 12.4069 52.9157 12.3399C52.6924 12.2721 52.4532 12.3333 52.2907 12.497L46.8734 17.9143L40.8264 11.8657L46.2403 6.45267C46.4036 6.28938 46.4644 6.04946 46.3974 5.82764C46.3304 5.60581 46.1475 5.43945 45.9206 5.39362C41.0347 4.4116 36.1685 7.36114 34.8817 12.3063C34.4935 11.54 34.0418 10.8025 33.5308 10.0939L34.4235 9.01831C35.1798 8.11061 35.0601 6.75463 34.145 5.99255L30.9806 3.36419C30.1029 2.63556 28.6834 2.76842 27.9559 3.64339L27.0605 4.72204C25.6318 4.04617 24.1379 3.58286 22.6079 3.34102L22.4789 1.94649C22.3683 0.756931 21.3093 -0.103841 20.1459 0.0101269L16.0402 0.388685C14.8549 0.498443 13.9814 1.5398 14.0911 2.72167L14.2201 4.11541C12.7352 4.64994 11.356 5.3801 10.1071 6.29046L9.02955 5.3947C8.11761 4.63834 6.76163 4.76466 6.00487 5.6739L3.36458 8.83986C2.60823 9.74987 2.73301 11.1066 3.64378 11.8645L4.71938 12.758C4.05006 14.1802 3.5868 15.6732 3.33757 17.2133L1.94659 17.3423C0.773197 17.4501 -0.0995042 18.4991 0.00913983 19.6745L0.388861 23.7817C0.493611 24.9085 1.44287 25.7384 2.52349 25.7384C2.63402 25.7384 3.53826 25.6549 4.11864 25.6006C4.63546 27.0594 5.36332 28.4415 6.28837 29.7247L5.39491 30.7922C4.63625 31.7049 4.76488 33.0617 5.67528 33.8169L8.8505 36.4553C9.76475 37.2132 11.1215 37.0834 11.8752 36.1749L12.7652 35.1044C13.4711 35.4414 14.2032 35.7317 14.9568 35.9636L9.81137 41.109C8.38608 42.5335 8.38687 44.8399 9.81137 46.2636L12.4783 48.9313C13.9036 50.3566 16.2081 50.3558 17.633 48.9313L42.5047 24.0576C49.072 25.1359 54.6518 19.313 53.3494 12.8166L53.3498 12.8166ZM2.60651 24.4796C2.12397 24.5223 1.68378 24.1599 1.63873 23.6659C1.28482 19.8413 0.881604 18.7003 2.06274 18.5916L3.17028 18.4896C3.08671 19.4701 3.08825 20.4644 3.18183 21.4557C3.26886 22.4442 3.45102 23.4248 3.7179 24.3775L2.60651 24.4796ZM28.9206 4.44552C29.2318 4.07081 29.7991 4.01382 30.178 4.32922L33.3425 6.95757C33.7215 7.27221 33.7742 7.83832 33.4588 8.21575L32.7487 9.07147C31.4654 7.5472 29.9432 6.28251 28.209 5.30127L28.9206 4.44552ZM16.1545 1.63803L20.2609 1.25831C20.7503 1.21402 21.1828 1.57294 21.2279 2.06203L21.3307 3.16957C20.3571 3.08253 19.3632 3.0833 18.3646 3.17804C17.3518 3.27355 16.3728 3.4557 15.4427 3.71334L15.3407 2.6065C15.2945 2.11394 15.6584 1.68415 16.1544 1.63795L16.1545 1.63803ZM4.44616 10.8992C4.06721 10.5838 4.01522 10.02 4.32909 9.6418L6.96829 6.47584C7.28369 6.09612 7.84827 6.04606 8.22647 6.35954L9.10298 7.08816C7.59488 8.35127 6.3082 9.89368 5.32124 11.6263L4.44616 10.8992ZM10.9098 35.3727C10.5944 35.7509 10.0314 35.8036 9.6524 35.489L6.47717 32.8506C6.09668 32.5352 6.04893 31.9679 6.35856 31.5951L7.07217 30.7437C8.35884 32.2629 9.91121 33.55 11.6226 34.5155L10.9098 35.3727ZM12.8781 33.7664C10.8278 32.7373 8.99353 31.2185 7.57475 29.3746C6.48605 27.9551 5.66461 26.395 5.13431 24.7306C4.76807 23.635 4.53122 22.4954 4.43071 21.3401C4.32019 20.1774 4.34214 19.0121 4.49426 17.876C4.72186 16.1333 5.24445 14.4481 6.04505 12.8688C7.10408 10.7926 8.62716 8.9642 10.4584 7.57697C11.8322 6.50788 13.386 5.68497 15.0824 5.13041C16.1422 4.7765 17.2857 4.54081 18.481 4.42759C19.6514 4.31552 20.8148 4.33978 21.9482 4.50037C23.6789 4.71873 25.3618 5.24055 26.9496 6.05047L26.9503 6.05124C29.0384 7.11028 30.8168 8.58831 32.2402 10.4453C32.2417 10.4469 32.2444 10.448 32.2459 10.4503C33.263 11.7786 34.0444 13.2335 34.5724 14.7743C34.5767 15.2595 34.6044 15.7455 34.6845 16.2323L33.5075 17.4093C32.9857 14.5467 31.5912 11.9738 29.5624 10.002C26.7842 7.2959 22.9146 5.7735 18.6271 6.13404C10.8128 6.89617 5.43598 13.7857 6.13595 21.1835C6.714 27.254 11.1532 32.3594 17.4125 33.504L15.9752 34.9413C14.8981 34.6636 13.8576 34.2739 12.8774 33.7659L12.8781 33.7664ZM20.1882 12.3048C15.7976 12.3048 12.2256 15.8766 12.2256 20.2665C12.2256 24.6564 15.7968 28.2283 20.1882 28.2283C21.31 28.2283 22.3764 27.9922 23.3453 27.5725L18.5222 32.3956C12.6015 31.7605 7.9486 27.0411 7.38763 21.0639C6.75606 14.4019 11.576 8.07688 18.744 7.38085C22.6556 7.05197 26.1554 8.43565 28.6905 10.8977C30.7524 12.9052 32.091 15.5864 32.4072 18.5098L27.4952 23.4226C27.9149 22.4541 28.151 21.3872 28.151 20.2655C28.1495 15.8768 24.5784 12.3041 20.1884 12.3041L20.1882 12.3048ZM26.8945 20.2677C26.8945 23.9659 23.8855 26.9748 20.1874 26.9748C16.4884 26.9748 13.4804 23.9658 13.4804 20.2677C13.4804 16.5696 16.4893 13.5607 20.1874 13.5607C23.8856 13.5595 26.8945 16.5688 26.8945 20.2677ZM41.8503 22.9369L16.7448 48.0423C15.8413 48.945 14.2678 48.945 13.3643 48.0423L12.4759 47.1539L31.0568 28.572C31.3017 28.3271 31.3017 27.9296 31.0568 27.6843C30.8118 27.4394 30.4144 27.4394 30.1691 27.6843L11.5892 46.2662L10.6977 45.3747C9.76262 44.4412 9.76416 42.9269 10.6977 41.9942L35.8061 16.8858C35.9551 16.7379 36.0194 16.5246 35.9774 16.3185C34.9292 11.098 39.0448 6.22114 44.4463 6.47047L39.4957 11.4211C39.3779 11.5389 39.3117 11.698 39.3117 11.8643C39.3117 12.0307 39.3779 12.1905 39.4957 12.3076L46.4304 19.2423C46.6754 19.4872 47.0728 19.4872 47.3181 19.2423L52.2718 14.2886C52.5336 19.6097 47.7163 23.8367 42.4188 22.7649C42.2108 22.7245 41.9986 22.788 41.8496 22.9371L41.8503 22.9369Z" fill="#999999"/>
<path d="M32.682 25.1756L31.5235 26.3341C31.2786 26.579 31.2786 26.9764 31.5235 27.2217C31.7685 27.4667 32.1659 27.4667 32.4112 27.2217L33.5696 26.0633C33.8146 25.8184 33.8146 25.421 33.5696 25.1756C33.3247 24.9307 32.9273 24.9307 32.682 25.1756Z" fill="#999999"/>
</svg>
