<svg width="55" height="40" viewBox="0 0 55 40" fill="none" xmlns="http://www.w3.org/2000/svg">
<path d="M43.446 19.9743C43.446 20.6181 43.3216 21.3324 43.2664 21.802L42.8242 25.18C42.7691 25.5973 42.6309 25.9807 42.2166 25.9807C41.7885 25.9807 41.664 25.5973 41.6089 25.18L41.1534 21.802C41.0842 21.3319 40.9738 20.618 40.9738 19.9743C40.9738 18.6161 41.3741 17.8154 42.2166 17.8154C43.0599 17.8154 43.446 18.616 43.446 19.9743H43.446ZM43.3083 28.627C43.3083 29.3932 42.8247 30.0019 42.2178 30.0019C41.6102 30.0019 41.1132 29.3926 41.1132 28.627C41.1132 27.843 41.6097 27.2343 42.2178 27.2343C42.8247 27.2338 43.3083 27.843 43.3083 28.627ZM15.8956 9.00763C15.8956 10.2612 15.4535 11.0274 14.4875 11.8454C14.0594 12.2287 13.6728 12.6293 13.5206 13.2731C13.3683 13.9169 13.1066 14.1962 12.6097 14.1962C12.1401 14.1962 11.7672 13.6915 11.7672 13.0467C11.7672 12.507 11.9879 12.0373 12.2505 11.5844C12.5823 11.0269 13.051 10.6268 13.5624 10.0871C13.8943 9.73931 14.032 9.37266 14.032 9.00818C14.032 8.24201 13.5346 7.70285 12.7478 7.70285C12.168 7.70285 11.8643 7.877 11.4637 8.19081C11.0493 8.52185 10.8838 8.93918 10.4284 8.93918C9.9862 8.93918 9.6411 8.46903 9.6411 7.8948C9.6411 7.28553 9.97294 6.91998 10.4694 6.51991C11.1186 5.9802 11.9332 5.63189 12.886 5.63189C14.5979 5.63082 15.8957 7.05856 15.8957 9.00766L15.8956 9.00763ZM13.7279 16.4417C13.7279 17.2079 13.2584 17.8344 12.6366 17.8344C12.0289 17.8344 11.5461 17.2074 11.5461 16.4417C11.5461 15.6755 12.0293 15.0668 12.6366 15.0668C13.2579 15.0663 13.7279 15.6761 13.7279 16.4417ZM24.0161 20.8009C24.0161 21.6156 23.4905 22.2782 22.8444 22.2782L7.65464 22.2777C7.37797 22.2777 7.12266 22.4616 6.98197 22.7624L6.14336 24.5551L5.26115 22.7472C5.11874 22.4561 4.86771 22.2787 4.59617 22.2787H2.73289C2.08674 22.2787 1.56118 21.6161 1.56118 20.8014V3.44705C1.56118 2.63237 2.08675 1.96973 2.73289 1.96973H22.8447C23.4908 1.96973 24.0164 2.63238 24.0164 3.44705V20.8014L24.0161 20.8009ZM22.8448 2.73799e-05H2.73306C1.22602 2.73799e-05 0 1.54636 0 3.44701V20.8013C0 22.7014 1.22602 24.2472 2.73306 24.2472H4.15963L5.49261 26.9787C5.63501 27.2698 5.8869 27.4472 6.15759 27.4472H6.16486C6.43897 27.444 6.69085 27.2601 6.82983 26.9625L8.09997 24.2472H22.8441C24.3516 24.2472 25.5772 22.7014 25.5772 20.8013L25.5776 3.44699C25.5785 1.54633 24.352 0 22.8454 0L22.8448 2.73799e-05ZM53.4378 33.1089C53.4378 33.9236 52.9122 34.5863 52.2661 34.5863H50.4037C50.1236 34.5863 49.8648 34.7755 49.7254 35.0823L48.856 37.0002L48.0298 35.098C47.8926 34.7826 47.63 34.5864 47.3452 34.5864H32.1544C31.5086 34.5864 30.9826 33.9237 30.9826 33.109L30.9831 15.7547C30.9831 14.94 31.5086 14.2774 32.1548 14.2774H52.2665C52.9127 14.2774 53.4383 14.94 53.4383 15.7547L53.4378 33.1089ZM52.2665 12.308H32.1547C30.6477 12.308 29.4217 13.8538 29.4217 15.7539V33.1082C29.4217 35.0089 30.6477 36.5541 32.1547 36.5541H46.8825L48.1569 39.4883C48.2929 39.8005 48.5525 39.9968 48.8351 40H48.842C49.1221 40 49.3808 39.8107 49.5202 39.504L50.8574 36.5541H52.2669C53.7744 36.5541 55 35.0084 55 33.1083V15.7539C55 13.8533 53.7744 12.3075 52.2669 12.3075L52.2665 12.308Z" fill="#999999"/>
</svg>
