<svg width="60" height="50" viewBox="0 0 60 50" fill="none" xmlns="http://www.w3.org/2000/svg">
<path fill-rule="evenodd" clip-rule="evenodd" d="M5.68969 49.9995C2.5524 49.9995 0 47.447 0 44.3098C0 41.172 2.55252 38.6196 5.68934 38.6196C8.82793 38.6196 11.38 41.1721 11.38 44.3098C11.38 44.7374 11.0334 45.084 10.6058 45.084C10.1786 45.084 9.83162 44.7374 9.83162 44.3098C9.83162 42.026 7.97265 40.168 5.68934 40.168C3.40603 40.168 1.54836 42.026 1.54836 44.3098C1.54836 46.5931 3.40591 48.4516 5.68934 48.4516C6.11836 48.4516 6.46352 48.7981 6.46352 49.2258C6.46352 49.653 6.1179 50 5.68934 50L5.68969 49.9995Z" fill="#999999"/>
<path fill-rule="evenodd" clip-rule="evenodd" d="M58.5813 49.9995H5.68824C5.2606 49.9995 4.91406 49.653 4.91406 49.2254C4.91406 48.7977 5.2606 48.4512 5.68824 48.4512H57.8074V6.46565H10.6052C10.1776 6.46565 9.83059 6.11912 9.83059 5.69148C9.83059 5.26383 10.1776 4.9173 10.6048 4.9173H58.5808C59.008 4.9173 59.355 5.26429 59.355 5.69148V49.2248C59.355 49.6524 59.008 49.999 58.5808 49.999L58.5813 49.9995Z" fill="#999999"/>
<path fill-rule="evenodd" clip-rule="evenodd" d="M10.6063 45.0837C10.1786 45.0837 9.83162 44.7372 9.83162 44.3095V5.69087C9.83162 3.40709 7.97265 1.54906 5.68934 1.54906C3.40603 1.54906 1.54836 3.40709 1.54836 5.69087V44.3084C1.54836 44.736 1.20136 45.0825 0.774178 45.0825C0.346997 45.0825 0 44.736 0 44.3084V5.68969C0 2.55193 2.55252 6.23988e-08 5.68934 6.23988e-08C8.82793 -0.000460846 11.38 2.55252 11.38 5.69017V44.3077C11.38 44.7353 11.0334 45.0818 10.6063 45.0818V45.0837Z" fill="#999999"/>
<path fill-rule="evenodd" clip-rule="evenodd" d="M20.9967 20.9471H43.2741L32.1361 12.7711L20.9967 20.9471ZM45.6371 22.4954H18.6337C18.2992 22.4954 18.002 22.2807 17.8983 21.9627C17.7932 21.6443 17.9061 21.2954 18.1752 21.0973L31.6781 11.1869C31.9513 10.9869 32.3218 10.9869 32.5933 11.1869L46.0961 21.0973C46.3662 21.2954 46.4777 21.6443 46.3731 21.9627C46.2694 22.2807 45.9726 22.4959 45.6376 22.4954H45.6371Z" fill="#999999"/>
<path fill-rule="evenodd" clip-rule="evenodd" d="M43.1345 40.6363H21.1414C20.7137 40.6363 20.3672 40.2897 20.3672 39.8621V21.7207C20.3672 21.2925 20.7137 20.9465 21.1409 20.9465C21.5685 20.9465 21.9151 21.293 21.9151 21.7207V39.087H42.3593V21.7207C42.3593 21.2925 42.7058 20.9465 43.1335 20.9465C43.5625 20.9465 43.9076 21.293 43.9076 21.7207V39.8621C43.9076 40.2897 43.562 40.6363 43.1335 40.6363H43.1345Z" fill="#999999"/>
<path fill-rule="evenodd" clip-rule="evenodd" d="M35.9557 40.6363C35.5281 40.6363 35.1815 40.2897 35.1815 39.8621V30.9406H29.0913V39.8616C29.0913 40.2893 28.7443 40.6358 28.3171 40.6358C27.89 40.6358 27.543 40.2893 27.543 39.8616V30.1659C27.543 29.7383 27.8895 29.3922 28.3171 29.3922L35.9557 29.3917C36.3829 29.3917 36.7299 29.7383 36.7299 30.1659V39.8611C36.7299 40.2888 36.3829 40.6353 35.9557 40.6353V40.6363Z" fill="#999999"/>
<path fill-rule="evenodd" clip-rule="evenodd" d="M41.435 19.4099C41.0073 19.4099 40.6608 19.0634 40.6608 18.6357V10.6672H37.1812V14.945C37.1812 15.3727 36.8342 15.7192 36.407 15.7192C35.9798 15.7192 35.6328 15.3727 35.6328 14.945V9.89307C35.6328 9.46543 35.9793 9.1189 36.407 9.1189H41.4355C41.8626 9.1189 42.2096 9.46543 42.2096 9.89307V18.6357C42.2096 19.0629 41.8626 19.4099 41.4355 19.4099H41.435Z" fill="#999999"/>
<path fill-rule="evenodd" clip-rule="evenodd" d="M42.3796 45.3173H21.8953C21.4681 45.3173 21.1211 44.9708 21.1211 44.5436C21.1211 44.1159 21.4681 43.7694 21.8953 43.7694H42.3796C42.8068 43.7694 43.1538 44.1159 43.1538 44.5436C43.1538 44.9708 42.8068 45.3178 42.3796 45.3173Z" fill="#999999"/>
<path fill-rule="evenodd" clip-rule="evenodd" d="M21.8953 46.7294C21.4681 46.7294 21.1211 46.3829 21.1211 45.9552V43.1327C21.1211 42.7051 21.4676 42.3585 21.8953 42.3585C22.3229 42.3585 22.6695 42.7051 22.6695 43.1327V45.9552C22.6695 46.3824 22.3225 46.7294 21.8953 46.7294Z" fill="#999999"/>
<path fill-rule="evenodd" clip-rule="evenodd" d="M42.3796 46.7294C41.952 46.7294 41.6055 46.3829 41.6055 45.9552V43.1327C41.6055 42.7051 41.952 42.3585 42.3796 42.3585C42.8073 42.3585 43.1538 42.7051 43.1538 43.1327V45.9552C43.1538 46.3824 42.8068 46.7294 42.3796 46.7294Z" fill="#999999"/>
<path fill-rule="evenodd" clip-rule="evenodd" d="M50.3171 35.8938C49.89 35.8938 49.543 35.5473 49.543 35.1197L49.5434 14.6354C49.5434 14.2077 49.89 13.8616 50.3171 13.8616C50.7462 13.8616 51.0913 14.2082 51.0913 14.6358L51.0918 35.1201C51.0918 35.5478 50.7462 35.8943 50.3171 35.8943V35.8938Z" fill="#999999"/>
<path fill-rule="evenodd" clip-rule="evenodd" d="M51.7295 15.4096H48.907C48.4794 15.4096 48.1328 15.063 48.1328 14.6354C48.1328 14.2077 48.4794 13.8612 48.907 13.8612H51.7295C52.1586 13.8612 52.5037 14.2077 52.5037 14.6354C52.5037 15.0626 52.1581 15.4096 51.7295 15.4096Z" fill="#999999"/>
<path fill-rule="evenodd" clip-rule="evenodd" d="M51.7295 35.8938H48.907C48.4794 35.8938 48.1328 35.5473 48.1328 35.1196C48.1328 34.692 48.4794 34.3455 48.907 34.3455H51.7295C52.1586 34.3455 52.5037 34.692 52.5037 35.1196C52.5037 35.5473 52.1581 35.8938 51.7295 35.8938Z" fill="#999999"/>
</svg>
