<svg width="40" height="40" viewBox="0 0 40 40" fill="none" xmlns="http://www.w3.org/2000/svg">
<g clip-path="url(#clip0_204_4357)">
<path d="M13.3333 23.3332C14.7837 23.3332 16.2016 22.9031 17.4075 22.0973C18.6135 21.2915 19.5534 20.1462 20.1085 18.8062C20.6635 17.4662 20.8087 15.9917 20.5258 14.5692C20.2428 13.1467 19.5444 11.84 18.5188 10.8144C17.4932 9.78881 16.1865 9.09037 14.764 8.80742C13.3415 8.52446 11.867 8.66968 10.527 9.22472C9.187 9.77977 8.04169 10.7197 7.23589 11.9257C6.43009 13.1316 6 14.5494 6 15.9998C6.00229 17.9441 6.77565 19.808 8.15042 21.1828C9.52519 22.5575 11.3891 23.3309 13.3333 23.3332ZM13.3333 9.99984C14.52 9.99984 15.6801 10.3517 16.6668 11.011C17.6535 11.6703 18.4225 12.6074 18.8766 13.7037C19.3307 14.8001 19.4496 16.0065 19.218 17.1704C18.9865 18.3343 18.4151 19.4034 17.576 20.2425C16.7369 21.0816 15.6678 21.653 14.5039 21.8846C13.34 22.1161 12.1336 21.9972 11.0372 21.5431C9.94088 21.089 9.0038 20.32 8.34452 19.3333C7.68523 18.3466 7.33333 17.1865 7.33333 15.9998C7.3351 14.4091 7.96781 12.884 9.09264 11.7591C10.2175 10.6343 11.7426 10.0016 13.3333 9.99984Z" fill="black"/>
<path d="M36 7.33355H18.3013C16.7917 6.4606 15.0786 6.00098 13.3347 6.00098C11.5908 6.00098 9.87768 6.4606 8.368 7.33355H4C2.93946 7.33461 1.92266 7.75637 1.17274 8.50629C0.422826 9.25621 0.00105895 10.273 0 11.3335L0 27.3335C0.00175325 28.2779 0.337245 29.1913 0.947198 29.9122C1.55715 30.6332 2.40231 31.1154 3.33333 31.2735V32.0002C3.33333 32.5306 3.54405 33.0394 3.91912 33.4144C4.29419 33.7895 4.8029 34.0002 5.33333 34.0002H9.33333C9.86377 34.0002 10.3725 33.7895 10.7475 33.4144C11.1226 33.0394 11.3333 32.5306 11.3333 32.0002V31.3335H28.6667V32.0002C28.6667 32.5306 28.8774 33.0394 29.2525 33.4144C29.6275 33.7895 30.1362 34.0002 30.6667 34.0002H34.6667C35.1971 34.0002 35.7058 33.7895 36.0809 33.4144C36.456 33.0394 36.6667 32.5306 36.6667 32.0002V31.2735C37.5977 31.1154 38.4428 30.6332 39.0528 29.9122C39.6628 29.1913 39.9982 28.2779 40 27.3335V11.3335C39.9989 10.273 39.5772 9.25621 38.8273 8.50629C38.0773 7.75637 37.0605 7.33461 36 7.33355ZM22 16.0002C22 17.7143 21.4917 19.3899 20.5394 20.8152C19.5871 22.2404 18.2335 23.3512 16.6499 24.0072C15.0663 24.6631 13.3237 24.8348 11.6426 24.5004C9.96138 24.1659 8.41713 23.3405 7.20507 22.1285C5.99302 20.9164 5.1676 19.3722 4.83319 17.691C4.49879 16.0098 4.67042 14.2673 5.32638 12.6836C5.98234 11.1 7.09317 9.74645 8.51839 8.79414C9.94362 7.84184 11.6192 7.33355 13.3333 7.33355C15.6311 7.33619 17.8339 8.25014 19.4587 9.87488C21.0834 11.4996 21.9974 13.7025 22 16.0002ZM10 32.0002C10 32.177 9.92976 32.3466 9.80474 32.4716C9.67971 32.5966 9.51014 32.6669 9.33333 32.6669H5.33333C5.15652 32.6669 4.98695 32.5966 4.86193 32.4716C4.7369 32.3466 4.66667 32.177 4.66667 32.0002V31.3335H10V32.0002ZM34.6667 32.6669H30.6667C30.4899 32.6669 30.3203 32.5966 30.1953 32.4716C30.0702 32.3466 30 32.177 30 32.0002V31.3335H35.3333V32.0002C35.3333 32.177 35.2631 32.3466 35.1381 32.4716C35.0131 32.5966 34.8435 32.6669 34.6667 32.6669ZM38.6667 27.3335C38.6667 28.0408 38.3857 28.7191 37.8856 29.2192C37.3855 29.7193 36.7072 30.0002 36 30.0002H4C3.29276 30.0002 2.61448 29.7193 2.11438 29.2192C1.61428 28.7191 1.33333 28.0408 1.33333 27.3335V11.3335C1.33333 10.6263 1.61428 9.94803 2.11438 9.44793C2.61448 8.94783 3.29276 8.66688 4 8.66688H6.55733C5.07716 10.0307 4.04295 11.8093 3.58994 13.7704C3.13692 15.7314 3.28618 17.7835 4.01821 19.6583C4.75023 21.5331 6.03095 23.1434 7.6929 24.2786C9.35484 25.4139 11.3207 26.0212 13.3333 26.0212C15.346 26.0212 17.3118 25.4139 18.9738 24.2786C20.6357 23.1434 21.9164 21.5331 22.6485 19.6583C23.3805 17.7835 23.5297 15.7314 23.0767 13.7704C22.6237 11.8093 21.5895 10.0307 20.1093 8.66688H36C36.7072 8.66688 37.3855 8.94783 37.8856 9.44793C38.3857 9.94803 38.6667 10.6263 38.6667 11.3335V27.3335Z" fill="black"/>
<path d="M26.6667 22C26.1393 22 25.6237 22.1564 25.1851 22.4494C24.7466 22.7424 24.4048 23.1589 24.203 23.6462C24.0012 24.1334 23.9483 24.6696 24.0512 25.1869C24.1541 25.7042 24.4081 26.1793 24.7811 26.5523C25.154 26.9252 25.6291 27.1792 26.1464 27.2821C26.6637 27.385 27.1999 27.3322 27.6872 27.1303C28.1744 26.9285 28.5909 26.5867 28.8839 26.1482C29.1769 25.7097 29.3333 25.1941 29.3333 24.6667C29.3333 23.9594 29.0524 23.2811 28.5523 22.781C28.0522 22.281 27.3739 22 26.6667 22ZM26.6667 26C26.403 26 26.1452 25.9218 25.9259 25.7753C25.7066 25.6288 25.5357 25.4205 25.4348 25.1769C25.3339 24.9333 25.3075 24.6652 25.359 24.4065C25.4104 24.1479 25.5374 23.9103 25.7239 23.7239C25.9103 23.5374 26.1479 23.4104 26.4065 23.359C26.6652 23.3075 26.9333 23.3339 27.1769 23.4348C27.4205 23.5357 27.6288 23.7066 27.7753 23.9259C27.9218 24.1452 28 24.403 28 24.6667C28 25.0203 27.8595 25.3594 27.6095 25.6095C27.3594 25.8595 27.0203 26 26.6667 26Z" fill="black"/>
<path d="M33.9987 22C33.4713 22 32.9557 22.1564 32.5172 22.4494C32.0786 22.7424 31.7369 23.1589 31.535 23.6462C31.3332 24.1334 31.2804 24.6696 31.3833 25.1869C31.4862 25.7042 31.7401 26.1793 32.1131 26.5523C32.486 26.9252 32.9612 27.1792 33.4785 27.2821C33.9957 27.385 34.5319 27.3322 35.0192 27.1303C35.5065 26.9285 35.9229 26.5867 36.216 26.1482C36.509 25.7097 36.6654 25.1941 36.6654 24.6667C36.6654 23.9594 36.3844 23.2811 35.8843 22.781C35.3842 22.281 34.7059 22 33.9987 22ZM33.9987 26C33.735 26 33.4772 25.9218 33.2579 25.7753C33.0387 25.6288 32.8678 25.4205 32.7669 25.1769C32.6659 24.9333 32.6395 24.6652 32.691 24.4065C32.7424 24.1479 32.8694 23.9103 33.0559 23.7239C33.2424 23.5374 33.4799 23.4104 33.7386 23.359C33.9972 23.3075 34.2653 23.3339 34.5089 23.4348C34.7526 23.5357 34.9608 23.7066 35.1073 23.9259C35.2538 24.1452 35.332 24.403 35.332 24.6667C35.332 25.0203 35.1916 25.3594 34.9415 25.6095C34.6915 25.8595 34.3523 26 33.9987 26Z" fill="black"/>
<path d="M9.33464 16.6668C9.51145 16.6668 9.68102 16.5966 9.80604 16.4716C9.93106 16.3465 10.0013 16.177 10.0013 16.0002C10.0024 15.1164 10.3539 14.2692 10.9788 13.6443C11.6037 13.0194 12.4509 12.6679 13.3346 12.6668C13.5114 12.6668 13.681 12.5966 13.806 12.4716C13.9311 12.3465 14.0013 12.177 14.0013 12.0002C14.0013 11.8234 13.9311 11.6538 13.806 11.5288C13.681 11.4037 13.5114 11.3335 13.3346 11.3335C12.0974 11.3351 10.9114 11.8273 10.0366 12.7021C9.16173 13.5769 8.66956 14.763 8.66797 16.0002C8.66797 16.177 8.73821 16.3465 8.86323 16.4716C8.98826 16.5966 9.15782 16.6668 9.33464 16.6668Z" fill="black"/>
<path d="M31.3333 11.3332C31.3333 11.1564 31.2631 10.9868 31.1381 10.8618C31.013 10.7367 30.8435 10.6665 30.6667 10.6665C30.4899 10.6665 30.3203 10.7367 30.1953 10.8618C30.0702 10.9868 30 11.1564 30 11.3332V16.6665C30 16.8433 30.0702 17.0129 30.1953 17.1379C30.3203 17.2629 30.4899 17.3332 30.6667 17.3332C30.8435 17.3332 31.013 17.2629 31.1381 17.1379C31.2631 17.0129 31.3333 16.8433 31.3333 16.6665V11.3332Z" fill="black"/>
<path d="M33.3346 17.3332C33.5114 17.3332 33.681 17.2629 33.806 17.1379C33.9311 17.0129 34.0013 16.8433 34.0013 16.6665V11.3332C34.0013 11.1564 33.9311 10.9868 33.806 10.8618C33.681 10.7367 33.5114 10.6665 33.3346 10.6665C33.1578 10.6665 32.9883 10.7367 32.8632 10.8618C32.7382 10.9868 32.668 11.1564 32.668 11.3332V16.6665C32.668 16.8433 32.7382 17.0129 32.8632 17.1379C32.9883 17.2629 33.1578 17.3332 33.3346 17.3332Z" fill="black"/>
<path d="M35.9987 10.6665C35.8219 10.6665 35.6523 10.7367 35.5273 10.8618C35.4023 10.9868 35.332 11.1564 35.332 11.3332V16.6665C35.332 16.8433 35.4023 17.0129 35.5273 17.1379C35.6523 17.2629 35.8219 17.3332 35.9987 17.3332C36.1755 17.3332 36.3451 17.2629 36.4701 17.1379C36.5951 17.0129 36.6654 16.8433 36.6654 16.6665V11.3332C36.6654 11.1564 36.5951 10.9868 36.4701 10.8618C36.3451 10.7367 36.1755 10.6665 35.9987 10.6665Z" fill="black"/>
</g>
<defs>
<clipPath id="clip0_204_4357">
<rect width="40" height="40" fill="white"/>
</clipPath>
</defs>
</svg>
