<svg width="40" height="40" viewBox="0 0 40 40" fill="none" xmlns="http://www.w3.org/2000/svg">
<g clip-path="url(#clip0_204_4368)">
<path d="M7.03522 30.9335C6.47522 30.9335 5.93689 31.0733 5.45929 31.3358C2.94342 28.1107 1.5625 24.1043 1.5625 20C1.5625 9.83337 9.83337 1.5625 20 1.5625C21.236 1.5625 22.4713 1.68549 23.6719 1.9281C24.0942 2.01355 24.5068 1.74011 24.5923 1.31714C24.6777 0.894165 24.4043 0.482178 23.9813 0.396423C22.6791 0.133362 21.3397 0 20 0C14.6579 0 9.63531 2.08038 5.85785 5.85785C2.08038 9.63531 0 14.6579 0 20C0 24.4937 1.52588 28.8791 4.30389 32.3947C3.94623 32.9291 3.75397 33.5571 3.75397 34.2148C3.75397 35.0912 4.09546 35.9152 4.71527 36.5347C5.33478 37.1545 6.15875 37.496 7.03522 37.496C7.91168 37.496 8.73566 37.1545 9.35547 36.5347C9.97528 35.9152 10.3165 35.0909 10.3165 34.2145C10.3165 33.3383 9.97528 32.514 9.35547 31.8945C8.73566 31.2747 7.91168 30.9335 7.03522 30.9335ZM8.25043 35.43C7.92603 35.7547 7.4942 35.9335 7.03522 35.9335C6.57623 35.9335 6.14471 35.7547 5.82001 35.43C5.4953 35.1053 5.31647 34.6738 5.31647 34.2148C5.31647 33.7555 5.4953 33.324 5.82001 32.9993C6.14441 32.6746 6.57623 32.496 7.03522 32.496C7.4942 32.496 7.92572 32.6749 8.25043 32.9993C8.57513 33.324 8.75397 33.7555 8.75397 34.2148C8.75397 34.6738 8.57513 35.1053 8.25043 35.43Z" fill="black"/>
<path d="M35.6968 7.60431C36.5461 6.3302 36.4096 4.58826 35.2863 3.4649C34.6665 2.8454 33.8425 2.50391 32.966 2.50391C32.0896 2.50391 31.2656 2.8454 30.6458 3.4649C30.026 4.08472 29.6848 4.90869 29.6848 5.78516C29.6848 6.66162 30.026 7.4856 30.6458 8.10541C31.2656 8.72522 32.0896 9.06641 32.966 9.06641C33.526 9.06641 34.0644 8.92664 34.542 8.66418C37.0578 11.8896 38.4388 15.8956 38.4388 19.9999C38.4388 30.1666 30.1679 38.4374 20.0013 38.4374C18.7775 38.4374 17.5537 38.3169 16.3645 38.0789C15.9415 37.9943 15.5298 38.2687 15.445 38.6917C15.3604 39.1149 15.6348 39.5263 16.0578 39.6111C17.3478 39.869 18.6747 39.9999 20.0013 39.9999C25.3434 39.9999 30.3659 37.9196 34.1434 34.1421C37.9209 30.3646 40.0013 25.342 40.0013 19.9999C40.0013 15.5059 38.4751 11.1202 35.6968 7.60431ZM31.7508 7.00067C31.4261 6.67596 31.2473 6.24445 31.2473 5.78516C31.2473 5.32617 31.4261 4.89465 31.7508 4.56995C32.0752 4.24524 32.5071 4.06641 32.966 4.06641C33.425 4.06641 33.8568 4.24524 34.1816 4.56995C34.8514 5.24011 34.8514 6.33051 34.1816 7.00067C33.8568 7.32507 33.425 7.50391 32.966 7.50391C32.5068 7.50391 32.0752 7.32507 31.7508 7.00067Z" fill="black"/>
<path d="M16.7773 33.4375C16.7773 33.869 17.1274 34.2188 17.5586 34.2188H22.4435C22.8751 34.2188 23.2248 33.869 23.2248 33.4375V31.9229C24.252 31.6464 25.2341 31.2393 26.1569 30.7077L27.2263 31.777C27.3727 31.9235 27.5714 32.0059 27.7789 32.0059C27.9858 32.0059 28.1848 31.9235 28.3313 31.7767L31.7841 28.3215C32.0889 28.0164 32.0889 27.5217 31.7841 27.2168L30.7159 26.1487C31.2476 25.2258 31.6547 24.2438 31.9312 23.2166H33.4399C33.8715 23.2166 34.2212 22.8668 34.2212 22.4353V17.5504C34.2212 17.1188 33.8715 16.7691 33.4399 16.7691H31.9308C31.6544 15.7422 31.2476 14.7601 30.7159 13.8373L31.7783 12.775C31.9247 12.6285 32.0071 12.4295 32.0071 12.2223C32.0068 12.0151 31.9244 11.8161 31.778 11.6696L28.3224 8.21686C28.0176 7.91199 27.5229 7.91199 27.2177 8.21716L26.1569 9.27826C25.2341 8.74664 24.252 8.33954 23.2248 8.06305V6.5625C23.2248 6.13098 22.8751 5.78125 22.4435 5.78125H17.5586C17.1274 5.78125 16.7773 6.13098 16.7773 6.5625V8.06335C15.7504 8.33954 14.7684 8.74664 13.8455 9.27826L12.7844 8.21716C12.4796 7.91229 11.9849 7.91199 11.6797 8.21686L8.22449 11.6699C8.0777 11.8164 7.9953 12.0151 7.9953 12.2223C7.9953 12.4295 8.0777 12.6285 8.22418 12.775L9.2865 13.8373C8.75488 14.7601 8.34778 15.7419 8.07129 16.7691H6.56525C6.13373 16.7691 5.784 17.1188 5.784 17.55L5.78125 22.435C5.78095 22.6422 5.86334 22.8412 6.00983 22.9877C6.15631 23.1342 6.35498 23.2166 6.5625 23.2166H8.07129C8.34778 24.2438 8.75488 25.2258 9.2865 26.1487L8.21838 27.2168C7.91351 27.5217 7.91321 28.0164 8.21838 28.3215L11.6711 31.7767C11.8176 31.9232 12.0163 32.0059 12.2235 32.0059H12.2238C12.431 32.0059 12.6297 31.9235 12.7762 31.777L13.8452 30.7077C14.7684 31.2393 15.7504 31.6464 16.7773 31.9229V33.4375ZM14.1516 29.0646C13.8425 28.8647 13.4357 28.9081 13.175 29.1684L12.2238 30.1196L9.87549 27.7695L10.8258 26.8188C11.0861 26.5585 11.1295 26.1517 10.9296 25.8426C10.2213 24.7464 9.72321 23.5449 9.44977 22.2711C9.37225 21.9113 9.05426 21.6541 8.68591 21.6541H7.34406L7.34589 18.3316H8.68591C9.05426 18.3316 9.37225 18.0746 9.44977 17.7145C9.72321 16.441 10.2213 15.2396 10.9296 14.1434C11.1295 13.8342 11.0861 13.4274 10.8258 13.1671L9.88159 12.2226L12.2318 9.87427L13.175 10.8179C13.4357 11.0782 13.8422 11.1212 14.1516 10.9216C15.2475 10.2133 16.449 9.71527 17.7228 9.44183C18.0826 9.36432 18.3398 9.04602 18.3398 8.67798V7.34375H21.6623V8.67767C21.6623 9.04602 21.9193 9.36432 22.2794 9.44153C23.5529 9.71527 24.7546 10.213 25.8505 10.9213C26.1597 11.1212 26.5665 11.0782 26.8268 10.8176L27.7704 9.87427L30.1205 12.2226L29.1763 13.1668C28.9157 13.4274 28.8727 13.8342 29.0726 14.1434C29.7809 15.2396 30.2786 16.441 30.5524 17.7145C30.6296 18.0746 30.9479 18.3316 31.3162 18.3316H32.6587V21.6541H31.3162C30.9479 21.6541 30.6299 21.9113 30.5524 22.2711C30.2789 23.5446 29.7809 24.7464 29.0726 25.8423C28.8727 26.1517 28.916 26.5585 29.1763 26.8188L30.1266 27.7692L27.7783 30.1193L26.8271 29.1684C26.5665 28.9078 26.1597 28.8647 25.8505 29.0646C24.7543 29.7729 23.5529 30.2707 22.2794 30.5444C21.9193 30.6219 21.6623 30.9399 21.6623 31.3083V32.6562H18.3398V31.3083C18.3398 30.9402 18.0826 30.6219 17.7228 30.5444C16.4493 30.271 15.2478 29.7729 14.1516 29.0646Z" fill="black"/>
<path d="M26.4537 19.9998C26.4537 16.4402 23.5579 13.5444 19.9984 13.5444C16.4388 13.5444 13.543 16.4402 13.543 19.9998C13.543 23.5594 16.4388 26.4552 19.9984 26.4552C23.5579 26.4552 26.4537 23.5594 26.4537 19.9998ZM15.1055 19.9998C15.1055 17.3018 17.3003 15.1069 19.9984 15.1069C22.6964 15.1069 24.8912 17.3021 24.8912 19.9998C24.8912 22.6976 22.6964 24.8927 19.9984 24.8927C17.3003 24.8927 15.1055 22.6979 15.1055 19.9998Z" fill="black"/>
<path d="M27.1953 2.95453C27.401 2.95453 27.6024 2.87091 27.7477 2.72565C27.8929 2.57947 27.9766 2.37805 27.9766 2.17236C27.9766 1.9679 27.8932 1.76617 27.7477 1.62C27.6024 1.47473 27.401 1.39111 27.1953 1.39111C26.989 1.39111 26.7885 1.47473 26.6432 1.62C26.4977 1.76617 26.4141 1.96698 26.4141 2.17236C26.4141 2.37866 26.4977 2.57947 26.6432 2.72565C26.7885 2.87091 26.989 2.95453 27.1953 2.95453Z" fill="black"/>
<path d="M12.8398 37.0596C12.6345 37.0596 12.4327 37.1432 12.2875 37.2885C12.1422 37.4337 12.0586 37.6354 12.0586 37.8408C12.0586 38.0471 12.1422 38.2479 12.2875 38.3932C12.4327 38.5385 12.6345 38.6221 12.8398 38.6221C13.0452 38.6221 13.2469 38.5385 13.3922 38.3932C13.5375 38.2479 13.6211 38.0462 13.6211 37.8408C13.6211 37.6354 13.5375 37.4337 13.3922 37.2885C13.2469 37.1432 13.0452 37.0596 12.8398 37.0596Z" fill="black"/>
</g>
<defs>
<clipPath id="clip0_204_4368">
<rect width="40" height="40" fill="white"/>
</clipPath>
</defs>
</svg>
