<svg width="40" height="40" viewBox="0 0 40 40" fill="none" xmlns="http://www.w3.org/2000/svg">
<path d="M28.0333 17.169C27.977 17.0789 27.8986 17.0046 27.8057 16.9532C27.7127 16.9018 27.6082 16.875 27.502 16.8752H20.627V7.5002C20.6262 7.36025 20.5784 7.22463 20.4913 7.11506C20.4043 7.00549 20.2829 6.92832 20.1468 6.8959C20.0106 6.86349 19.8676 6.8777 19.7404 6.93628C19.6133 6.99485 19.5096 7.09439 19.4458 7.21895L11.9458 22.219C11.8978 22.3141 11.875 22.4199 11.8795 22.5264C11.8839 22.6328 11.9155 22.7364 11.9712 22.8272C12.027 22.918 12.105 22.993 12.1979 23.0452C12.2908 23.0973 12.3955 23.1249 12.502 23.1252H19.377V32.5002C19.3775 32.6406 19.4252 32.7768 19.5125 32.8868C19.5998 32.9968 19.7216 33.0742 19.8583 33.1065C19.9052 33.1188 19.9535 33.1251 20.002 33.1252C20.1174 33.1249 20.2305 33.0926 20.3287 33.0319C20.4269 32.9712 20.5063 32.8845 20.5583 32.7815L28.0583 17.7815C28.1066 17.6857 28.1298 17.5792 28.1254 17.472C28.121 17.3648 28.0893 17.2605 28.0333 17.169ZM20.627 29.8502V22.5002C20.627 22.3344 20.5612 22.1755 20.444 22.0583C20.3267 21.941 20.1678 21.8752 20.002 21.8752H13.5145L19.377 10.1502V17.5002C19.377 17.666 19.4429 17.8249 19.5601 17.9421C19.6773 18.0594 19.8363 18.1252 20.002 18.1252H26.4895L20.627 29.8502Z" fill="black"/>
<path d="M35.2555 9.1126C35.7305 8.51439 35.9694 7.76257 35.9268 6.99986C35.8842 6.23715 35.563 5.51664 35.0242 4.9751L33.2555 3.20635C33.1365 3.09345 32.9788 3.03051 32.8148 3.03051C32.6509 3.03051 32.4931 3.09345 32.3742 3.20635L31.9305 3.6501L30.1617 1.88135L29.2805 2.7626L31.0492 4.53135L30.1617 5.41885L28.393 3.6501L27.5117 4.53135L29.2805 6.3001L28.8367 6.74385C28.7203 6.86095 28.655 7.01936 28.655 7.18447C28.655 7.34959 28.7203 7.508 28.8367 7.6251L30.6055 9.39385C31.0789 9.87124 31.6954 10.1809 32.361 10.2757C33.0267 10.3704 33.7051 10.2451 34.293 9.91885C36.3882 12.862 37.5094 16.3873 37.4992 20.0001C37.4966 22.8718 36.788 25.6989 35.4358 28.2323C34.0835 30.7657 32.1291 32.9278 29.7447 34.5281C27.3602 36.1285 24.6188 37.118 21.7619 37.4095C18.9051 37.7011 16.0203 37.2858 13.3617 36.2001L12.8867 37.3563C15.7352 38.52 18.8261 38.9654 21.8872 38.6533C24.9483 38.3411 27.8857 37.2811 30.4406 35.5665C32.9956 33.8518 35.0897 31.5352 36.5386 28.8207C37.9875 26.1062 38.7467 23.0771 38.7492 20.0001C38.7606 16.0935 37.5378 12.2831 35.2555 9.1126ZM34.143 8.5126C33.7888 8.86109 33.3118 9.05639 32.8148 9.05639C32.3179 9.05639 31.8409 8.86109 31.4867 8.5126L30.1617 7.18135L32.818 4.53135L34.143 5.85635C34.4942 6.20914 34.6913 6.68667 34.6913 7.18447C34.6913 7.68227 34.4942 8.15981 34.143 8.5126Z" fill="black"/>
<path d="M20.0001 1.25002C15.0291 1.25614 10.2636 3.23355 6.74859 6.74853C3.2336 10.2635 1.2562 15.0291 1.25008 20C1.23872 23.9066 2.46145 27.717 4.74383 30.8875C4.26876 31.4857 4.02987 32.2375 4.0725 33.0003C4.11513 33.763 4.43631 34.4835 4.97508 35.025L6.74383 36.7938C6.8008 36.8519 6.86891 36.8979 6.94409 36.929C7.01927 36.9602 7.09996 36.9758 7.18133 36.975C7.26363 36.9758 7.34527 36.9602 7.42147 36.9291C7.49766 36.898 7.56689 36.852 7.62508 36.7938L8.06883 36.35L9.83758 38.1188L10.7188 37.2375L8.95008 35.4688L9.83758 34.5813L11.6063 36.35L12.4876 35.4688L10.7188 33.7L11.1626 33.2563C11.279 33.1392 11.3443 32.9808 11.3443 32.8156C11.3443 32.6505 11.279 32.4921 11.1626 32.375L9.39383 30.6063C8.91761 30.1335 8.3015 29.827 7.63712 29.7324C6.97275 29.6378 6.29559 29.7602 5.70633 30.0813C3.61108 27.1381 2.48989 23.6128 2.50008 20C2.50521 15.3603 4.3506 10.9121 7.63137 7.63132C10.9121 4.35054 15.3604 2.50515 20.0001 2.50002C22.2769 2.49527 24.5323 2.93914 26.6376 3.80627L27.1126 2.64377C24.8553 1.71995 22.4391 1.24648 20.0001 1.25002ZM5.85633 31.4875C6.21055 31.139 6.68755 30.9437 7.18445 30.9437C7.68136 30.9437 8.15836 31.139 8.51258 31.4875L9.83758 32.8188L7.18133 35.4688L5.85633 34.1438C5.50513 33.791 5.30795 33.3134 5.30795 32.8156C5.30795 32.3178 5.50513 31.8403 5.85633 31.4875Z" fill="black"/>
</svg>
