<svg width="40" height="40" viewBox="0 0 40 40" fill="none" xmlns="http://www.w3.org/2000/svg">
<path d="M2.49972 9.69387C2.58197 9.69434 2.66351 9.67858 2.73966 9.64747C2.81581 9.61637 2.88507 9.57054 2.94347 9.51262L9.51222 2.94387C9.57049 2.88559 9.61672 2.81641 9.64825 2.74027C9.67979 2.66413 9.69602 2.58253 9.69602 2.50012C9.69602 2.4177 9.67979 2.3361 9.64825 2.25996C9.61672 2.18382 9.57049 2.11464 9.51222 2.05637C9.45394 1.99809 9.38476 1.95187 9.30862 1.92033C9.23248 1.88879 9.15088 1.87256 9.06847 1.87256C8.90203 1.87256 8.74241 1.93868 8.62472 2.05637L2.05597 8.62512C1.99739 8.68322 1.95089 8.75234 1.91916 8.82851C1.88743 8.90467 1.87109 8.98636 1.87109 9.06887C1.87109 9.15137 1.88743 9.23306 1.91916 9.30923C1.95089 9.38539 1.99739 9.45451 2.05597 9.51262C2.11437 9.57054 2.18363 9.61637 2.25978 9.64747C2.33592 9.67858 2.41746 9.69434 2.49972 9.69387V9.69387Z" fill="black"/>
<path d="M2.49972 16.8064C2.58197 16.8068 2.66351 16.7911 2.73966 16.76C2.81581 16.7289 2.88507 16.683 2.94347 16.6251L16.6247 2.94387C16.683 2.88559 16.7292 2.81641 16.7608 2.74027C16.7923 2.66413 16.8085 2.58253 16.8085 2.50012C16.8085 2.4177 16.7923 2.3361 16.7608 2.25996C16.7292 2.18382 16.683 2.11464 16.6247 2.05637C16.5664 1.99809 16.4973 1.95187 16.4211 1.92033C16.345 1.88879 16.2634 1.87256 16.181 1.87256C16.0986 1.87256 16.017 1.88879 15.9408 1.92033C15.8647 1.95187 15.7955 1.99809 15.7372 2.05637L2.05597 15.7376C1.99739 15.7957 1.95089 15.8648 1.91916 15.941C1.88743 16.0172 1.87109 16.0989 1.87109 16.1814C1.87109 16.2639 1.88743 16.3456 1.91916 16.4217C1.95089 16.4979 1.99739 16.567 2.05597 16.6251C2.11437 16.683 2.18363 16.7289 2.25978 16.76C2.33592 16.7911 2.41746 16.8068 2.49972 16.8064V16.8064Z" fill="black"/>
<path d="M2.49972 23.9064C2.66234 23.9141 2.82155 23.858 2.94347 23.7501L23.7497 2.94387C23.8674 2.82618 23.9335 2.66655 23.9335 2.50012C23.9335 2.33368 23.8674 2.17406 23.7497 2.05637C23.632 1.93868 23.4724 1.87256 23.306 1.87256C23.1395 1.87256 22.9799 1.93868 22.8622 2.05637L2.05597 22.8376C1.99739 22.8957 1.95089 22.9648 1.91916 23.041C1.88743 23.1172 1.87109 23.1989 1.87109 23.2814C1.87109 23.3639 1.88743 23.4456 1.91916 23.5217C1.95089 23.5979 1.99739 23.667 2.05597 23.7251C2.11437 23.783 2.18363 23.8289 2.25978 23.86C2.33592 23.8911 2.41746 23.9068 2.49972 23.9064V23.9064Z" fill="black"/>
<path d="M2.49972 31.0189C2.58197 31.0193 2.66351 31.0036 2.73966 30.9725C2.81581 30.9414 2.88507 30.8955 2.94347 30.8376L30.8372 2.94387C30.8955 2.88559 30.9417 2.81641 30.9733 2.74027C31.0048 2.66413 31.021 2.58253 31.021 2.50012C31.021 2.4177 31.0048 2.3361 30.9733 2.25996C30.9417 2.18382 30.8955 2.11464 30.8372 2.05637C30.7789 1.99809 30.7098 1.95187 30.6336 1.92033C30.5575 1.88879 30.4759 1.87256 30.3935 1.87256C30.3111 1.87256 30.2295 1.88879 30.1533 1.92033C30.0772 1.95187 30.008 1.99809 29.9497 2.05637L2.05597 29.9501C1.99739 30.0082 1.95089 30.0773 1.91916 30.1535C1.88743 30.2297 1.87109 30.3114 1.87109 30.3939C1.87109 30.4764 1.88743 30.5581 1.91916 30.6342C1.95089 30.7104 1.99739 30.7795 2.05597 30.8376C2.11437 30.8955 2.18363 30.9414 2.25978 30.9725C2.33592 31.0036 2.41746 31.0193 2.49972 31.0189V31.0189Z" fill="black"/>
<path d="M37.9435 2.05646C37.8854 1.99788 37.8162 1.95138 37.7401 1.91965C37.6639 1.88792 37.5822 1.87158 37.4997 1.87158C37.4172 1.87158 37.3355 1.88792 37.2594 1.91965C37.1832 1.95138 37.1141 1.99788 37.056 2.05646L2.05597 37.0565C1.99739 37.1146 1.95089 37.1837 1.91916 37.2598C1.88743 37.336 1.87109 37.4177 1.87109 37.5002C1.87109 37.5827 1.88743 37.6644 1.91916 37.7406C1.95089 37.8167 1.99739 37.8859 2.05597 37.944C2.11407 38.0025 2.1832 38.049 2.25936 38.0808C2.33552 38.1125 2.41721 38.1288 2.49972 38.1288C2.58223 38.1288 2.66392 38.1125 2.74008 38.0808C2.81624 38.049 2.88537 38.0025 2.94347 37.944L37.9435 2.94396C38.002 2.88585 38.0485 2.81673 38.0803 2.74057C38.112 2.6644 38.1283 2.58271 38.1283 2.50021C38.1283 2.4177 38.112 2.33601 38.0803 2.25985C38.0485 2.18368 38.002 2.11456 37.9435 2.05646V2.05646Z" fill="black"/>
<path d="M37.0552 9.16281L9.16144 37.0566C9.10286 37.1147 9.05636 37.1838 9.02463 37.26C8.9929 37.3361 8.97656 37.4178 8.97656 37.5003C8.97656 37.5828 8.9929 37.6645 9.02463 37.7407C9.05636 37.8168 9.10286 37.886 9.16144 37.9441C9.21954 38.0026 9.28866 38.0491 9.36483 38.0809C9.44099 38.1126 9.52268 38.1289 9.60519 38.1289C9.68769 38.1289 9.76938 38.1126 9.84555 38.0809C9.92171 38.0491 9.99083 38.0026 10.0489 37.9441L37.9427 10.0503C38.0604 9.93262 38.1265 9.773 38.1265 9.60656C38.1265 9.44012 38.0604 9.2805 37.9427 9.16281C37.825 9.04512 37.6654 8.979 37.4989 8.979C37.3325 8.979 37.1729 9.04512 37.0552 9.16281V9.16281Z" fill="black"/>
<path d="M37.0575 16.25L16.2513 37.0563C16.1927 37.1144 16.1462 37.1835 16.1145 37.2597C16.0827 37.3358 16.0664 37.4175 16.0664 37.5C16.0664 37.5825 16.0827 37.6642 16.1145 37.7404C16.1462 37.8166 16.1927 37.8857 16.2513 37.9438C16.3094 38.0024 16.3785 38.0489 16.4547 38.0806C16.5308 38.1123 16.6125 38.1287 16.695 38.1287C16.7775 38.1287 16.8592 38.1123 16.9354 38.0806C17.0116 38.0489 17.0807 38.0024 17.1388 37.9438L37.945 17.1625C38.066 17.0448 38.1353 16.8839 38.1377 16.7151C38.14 16.5463 38.0752 16.3835 37.9575 16.2625C37.8398 16.1415 37.6789 16.0722 37.5101 16.0699C37.3413 16.0675 37.1785 16.1323 37.0575 16.25Z" fill="black"/>
<path d="M37.0575 23.3752L23.3763 37.0565C23.3177 37.1146 23.2712 37.1837 23.2395 37.2599C23.2077 37.336 23.1914 37.4177 23.1914 37.5002C23.1914 37.5827 23.2077 37.6644 23.2395 37.7406C23.2712 37.8167 23.3177 37.8859 23.3763 37.944C23.4344 38.0025 23.5035 38.049 23.5797 38.0808C23.6558 38.1125 23.7375 38.1288 23.82 38.1288C23.9025 38.1288 23.9842 38.1125 24.0604 38.0808C24.1366 38.049 24.2057 38.0025 24.2638 37.944L37.945 24.2627C38.0627 24.145 38.1288 23.9854 38.1288 23.819C38.1288 23.6525 38.0627 23.4929 37.945 23.3752C37.8273 23.2575 37.6677 23.1914 37.5013 23.1914C37.3348 23.1914 37.1752 23.2575 37.0575 23.3752V23.3752Z" fill="black"/>
<path d="M37.0544 30.4875L30.4857 37.0563C30.4271 37.1144 30.3806 37.1835 30.3488 37.2597C30.3171 37.3358 30.3008 37.4175 30.3008 37.5C30.3008 37.5825 30.3171 37.6642 30.3488 37.7404C30.3806 37.8165 30.4271 37.8857 30.4857 37.9438C30.5438 38.0023 30.6129 38.0488 30.689 38.0806C30.7652 38.1123 30.8469 38.1286 30.9294 38.1286C31.0119 38.1286 31.0936 38.1123 31.1698 38.0806C31.2459 38.0488 31.3151 38.0023 31.3732 37.9438L37.9419 31.375C38.0596 31.2573 38.1257 31.0977 38.1257 30.9313C38.1257 30.7648 38.0596 30.6052 37.9419 30.4875C37.8242 30.3698 37.6646 30.3037 37.4982 30.3037C37.3317 30.3037 37.1721 30.3698 37.0544 30.4875V30.4875Z" fill="black"/>
</svg>
