<svg width="40" height="40" viewBox="0 0 40 40" fill="none" xmlns="http://www.w3.org/2000/svg">
<g clip-path="url(#clip0_204_4287)">
<path d="M37.0646 3.60078H18.043V4.77492H37.0646C38.0357 4.77492 38.8259 5.565 38.8259 6.53617V23.953H17.9256V6.68672L14.9902 1.79438L12.0548 6.68672V23.953H10.0978V0H3.44422V23.953H1.17414V6.53617C1.17414 5.81297 1.62734 5.15219 2.30188 4.89211L1.8793 3.79664C0.755234 4.23023 0 5.33109 0 6.53617V28.454C0 30.0726 1.3168 31.3894 2.93539 31.3894H13.9334V35.6947H12.1722C10.9852 35.6947 10.0195 36.6603 10.0195 37.8473V40H29.9805V37.8473C29.9805 36.6603 29.0148 35.6947 27.8278 35.6947H26.0666V31.3894H37.0646C38.6832 31.3894 40 30.0726 40 28.454V6.53617C40 4.91758 38.6832 3.60078 37.0646 3.60078ZM14.9902 4.07656L16.5331 6.64797L14.9902 7.57359L13.4473 6.64789L14.9902 4.07656ZM13.229 7.88617L14.9902 8.94289L16.7515 7.88617V20.8219H13.229V7.88617ZM13.229 21.9961H16.7515V23.953H13.229V21.9961ZM4.61836 22.5441H7.47547V21.3699H4.61836V20.1958H6.22305V19.0216H4.61836V17.8475H7.47547V16.6734H4.61836V15.4992H6.22305V14.3251H4.61836V13.1509H7.47547V11.9768H4.61836V10.8023H6.22305V9.6282H4.61836V8.45406H7.47547V7.27984H4.61836V6.1057H6.22305V4.93148H4.61836V3.75734H7.47547V2.5832H4.61836V1.17414H8.92367V23.953H4.61836V22.5441ZM27.8278 36.8689C28.3673 36.8689 28.8062 37.3078 28.8062 37.8473V38.8258H11.1938V37.8473C11.1938 37.3078 11.6327 36.8689 12.1722 36.8689H27.8278ZM15.1077 35.6947V31.3894H24.8924V35.6947H15.1077ZM38.8259 28.454C38.8259 29.4252 38.0357 30.2152 37.0646 30.2152H2.93539C1.9643 30.2152 1.17414 29.4252 1.17414 28.454V25.1272H38.8258V28.454H38.8259Z" fill="black"/>
<path d="M23.9531 5.94922V12.6028H37.6517V5.94922H23.9531ZM36.4776 11.4287H25.1273V7.12336H36.4776V11.4287Z" fill="black"/>
<path d="M23.9531 13.7769V18.0822H30.2154V13.7769H23.9531ZM29.0412 16.908H25.1273V14.9511H29.0412V16.908Z" fill="black"/>
<path d="M31.3906 13.7769V18.0822H37.6529V13.7769H31.3906ZM36.4787 16.908H32.5648V14.9511H36.4787V16.908Z" fill="black"/>
<path d="M22.6632 7.12336V5.94922H19.1406V7.12336H20.3148V21.6048H19.1406V22.7789H22.6632V21.6048H21.489V7.12336H22.6632Z" fill="black"/>
<path d="M20.5882 27.084H19.4141V28.2581H20.5882V27.084Z" fill="black"/>
<path d="M22.9359 27.084H21.7617V28.2581H22.9359V27.084Z" fill="black"/>
<path d="M18.2405 27.084H17.0664V28.2581H18.2405V27.084Z" fill="black"/>
<path d="M15.5765 15.3032H14.4023V16.4774H15.5765V15.3032Z" fill="black"/>
<path d="M15.5765 17.6514H14.4023V19.6083H15.5765V17.6514Z" fill="black"/>
<path d="M15.5765 10.2153H14.4023V14.1292H15.5765V10.2153Z" fill="black"/>
<path d="M29.6273 19.6475H28.4531V20.8216H29.6273V19.6475Z" fill="black"/>
<path d="M27.2787 19.6475H24.5391V20.8216H27.2787V19.6475Z" fill="black"/>
<path d="M34.7162 19.6479H31.9766V20.8221H34.7162V19.6479Z" fill="black"/>
<path d="M37.0648 19.6479H35.8906V20.8221H37.0648V19.6479Z" fill="black"/>
</g>
<defs>
<clipPath id="clip0_204_4287">
<rect width="40" height="40" fill="white"/>
</clipPath>
</defs>
</svg>
