<svg width="40" height="40" viewBox="0 0 40 40" fill="none" xmlns="http://www.w3.org/2000/svg">
<g clip-path="url(#clip0_204_4335)">
<path d="M35.625 16.25H35V12.5C35 12.155 34.72 11.875 34.375 11.875V3.125C34.375 2.78 34.095 2.5 33.75 2.5C33.405 2.5 33.125 2.78 33.125 3.125V11.875H31.875V7.5C31.875 7.155 31.595 6.875 31.25 6.875C30.905 6.875 30.625 7.155 30.625 7.5V11.875H29.375V3.125C29.375 2.78 29.095 2.5 28.75 2.5C28.405 2.5 28.125 2.78 28.125 3.125V11.875C27.78 11.875 27.5 12.155 27.5 12.5V16.25H26.875C26.53 16.25 26.25 16.53 26.25 16.875V39.375C26.25 39.72 26.53 40 26.875 40H35.625C35.97 40 36.25 39.72 36.25 39.375V16.875C36.25 16.53 35.97 16.25 35.625 16.25ZM28.75 13.125H33.75V16.25H28.75V13.125ZM35 38.75H27.5V17.5H35V38.75Z" fill="black"/>
<path d="M22.5 16.25H21.875V11.875C21.875 11.53 21.595 11.25 21.25 11.25H20.625V0.625C20.625 0.28 20.345 0 20 0C19.655 0 19.375 0.28 19.375 0.625V11.25H18.75C18.405 11.25 18.125 11.53 18.125 11.875V16.25H17.5C17.155 16.25 16.875 16.53 16.875 16.875V39.375C16.875 39.72 17.155 40 17.5 40H22.5C22.845 40 23.125 39.72 23.125 39.375V16.875C23.125 16.53 22.845 16.25 22.5 16.25ZM19.375 12.5H20.625V16.25H19.375V12.5ZM21.875 38.75H18.125V17.5H21.875V38.75Z" fill="black"/>
<path d="M13.9347 2.05799C13.8291 2.16362 11.4022 4.68549 10.6872 11.8749H10.0128C10.1372 4.52737 12.3641 1.02112 12.3972 0.970495C12.5878 0.683619 12.5097 0.29612 12.2228 0.10487C11.9353 -0.0870055 11.5472 -0.00950548 11.356 0.277995C11.3028 0.35862 10.6435 1.37424 10.0016 3.40862V0.624869C10.0016 0.279869 9.72158 -0.000130471 9.37658 -0.000130471C9.03158 -0.000130471 8.75158 0.279869 8.75158 0.624869V3.40862C8.10971 1.37424 7.45033 0.35862 7.39658 0.277995C7.20533 -0.00825547 6.81783 -0.0857555 6.53221 0.104245C6.24533 0.29487 6.16658 0.681745 6.35596 0.969869C6.37908 1.00549 8.61596 4.51112 8.73971 11.8749H8.06596C7.35096 4.68549 4.92408 2.16362 4.81846 2.05799C4.57596 1.81487 4.18346 1.81487 3.93908 2.05674C3.69471 2.29737 3.69221 2.69237 3.93158 2.93862C3.95408 2.96174 6.13221 5.29112 6.81096 11.888C6.49846 11.9224 6.25158 12.178 6.25158 12.4999V16.2499H5.62658C5.28158 16.2499 5.00158 16.5299 5.00158 16.8749V39.3749C5.00158 39.7199 5.28158 39.9999 5.62658 39.9999H13.1266C13.4716 39.9999 13.7516 39.7199 13.7516 39.3749V16.8749C13.7516 16.5299 13.4716 16.2499 13.1266 16.2499H12.5016V12.4999C12.5016 12.178 12.2547 11.9224 11.9422 11.888C12.6185 5.31737 14.7816 2.98049 14.8216 2.93862C15.0628 2.69424 15.0622 2.30049 14.8191 2.05737C14.5741 1.81362 14.1791 1.81362 13.9347 2.05799ZM10.4791 17.4999L6.25158 19.6136V17.4999H10.4791ZM12.5016 27.7386L6.25158 30.8636V28.5111L12.5016 25.3861V27.7386ZM6.25158 32.2611L12.5016 29.1361V31.4886L6.25158 34.6136V32.2611ZM12.5016 23.9886L6.25158 27.1136V24.7611L12.5016 21.6361V23.9886ZM6.25158 36.0111L12.5016 32.8861V35.2386L6.25158 38.3636V36.0111ZM12.5016 20.2386L6.25158 23.3636V21.0111L12.5016 17.8861V20.2386ZM8.27408 38.7499L12.5016 36.6361V38.7499H8.27408ZM7.50158 16.2499V13.1249H11.2516V16.2499H7.50158Z" fill="black"/>
<path d="M20 21.875C19.655 21.875 19.375 22.155 19.375 22.5V31.875C19.375 32.22 19.655 32.5 20 32.5C20.345 32.5 20.625 32.22 20.625 31.875V22.5C20.625 22.155 20.345 21.875 20 21.875Z" fill="black"/>
<path d="M20 20.625C20.3452 20.625 20.625 20.3452 20.625 20C20.625 19.6548 20.3452 19.375 20 19.375C19.6548 19.375 19.375 19.6548 19.375 20C19.375 20.3452 19.6548 20.625 20 20.625Z" fill="black"/>
<path d="M31.25 1.25C31.5952 1.25 31.875 0.970178 31.875 0.625C31.875 0.279822 31.5952 0 31.25 0C30.9048 0 30.625 0.279822 30.625 0.625C30.625 0.970178 30.9048 1.25 31.25 1.25Z" fill="black"/>
<path d="M28.75 1.25C29.0952 1.25 29.375 0.970178 29.375 0.625C29.375 0.279822 29.0952 0 28.75 0C28.4048 0 28.125 0.279822 28.125 0.625C28.125 0.970178 28.4048 1.25 28.75 1.25Z" fill="black"/>
<path d="M33.75 1.25C34.0952 1.25 34.375 0.970178 34.375 0.625C34.375 0.279822 34.0952 0 33.75 0C33.4048 0 33.125 0.279822 33.125 0.625C33.125 0.970178 33.4048 1.25 33.75 1.25Z" fill="black"/>
<path d="M29.375 18.75C29.03 18.75 28.75 19.03 28.75 19.375V28.75C28.75 29.095 29.03 29.375 29.375 29.375C29.72 29.375 30 29.095 30 28.75V19.375C30 19.03 29.72 18.75 29.375 18.75Z" fill="black"/>
<path d="M29.375 31.875C29.7202 31.875 30 31.5952 30 31.25C30 30.9048 29.7202 30.625 29.375 30.625C29.0298 30.625 28.75 30.9048 28.75 31.25C28.75 31.5952 29.0298 31.875 29.375 31.875Z" fill="black"/>
<path d="M31.25 5.625C31.595 5.625 31.875 5.345 31.875 5V3.125C31.875 2.78 31.595 2.5 31.25 2.5C30.905 2.5 30.625 2.78 30.625 3.125V5C30.625 5.345 30.905 5.625 31.25 5.625Z" fill="black"/>
</g>
<defs>
<clipPath id="clip0_204_4335">
<rect width="40" height="40" fill="white"/>
</clipPath>
</defs>
</svg>
