<svg width="40" height="40" viewBox="0 0 40 40" fill="none" xmlns="http://www.w3.org/2000/svg">
<g clip-path="url(#clip0_204_4206)">
<path d="M39.7034 20.1165C39.4965 19.8495 39.1849 19.6799 38.8484 19.651L24.0736 18.3856C23.4504 18.3328 22.8794 18.7738 22.7749 19.3909C22.7007 19.829 22.6264 20.2671 22.5522 20.7053C22.308 22.1458 20.6717 31.8006 20.6426 31.9728C20.5837 32.321 20.388 32.2192 20.0566 32.181C19.8315 32.1552 19.6047 32.1436 19.3781 32.1455C18.9146 32.1493 18.4517 32.2097 18.002 32.3217C15.437 32.961 13.7695 35.1635 14.2849 37.2314C14.5413 38.2604 15.2827 39.0935 16.3725 39.5771C17.0051 39.8578 17.7126 39.9999 18.444 39.9999C18.9145 39.9999 19.395 39.941 19.8713 39.8223C20.9375 39.5565 21.9458 38.992 22.6758 38.1636C23.4049 37.3362 23.6066 36.4083 23.7851 35.3548C23.8519 34.9612 25.704 24.037 25.7408 23.8554C25.7942 23.5912 25.9435 23.6313 26.1765 23.6513C26.5013 23.6792 35.2167 24.4256 35.47 24.4473C35.551 24.4542 35.6511 24.4797 35.6337 24.5827C35.5515 25.0671 34.408 31.851 34.388 31.9328C34.3209 32.2062 33.9714 32.0363 33.7761 32.0155C33.5576 31.9921 33.3379 31.982 33.1182 31.9847C32.6614 31.9902 32.2055 32.0503 31.7623 32.1608C30.5456 32.4641 29.4892 33.1241 28.7877 34.0194C28.0523 34.9578 27.7887 36.0413 28.0451 37.0704C28.4646 38.7538 30.2029 39.837 32.2187 39.8369C32.6792 39.8369 33.1545 39.7803 33.6315 39.6614C35.3902 39.2231 36.8 38.0199 37.2726 36.5701C37.5005 35.8706 39.7982 21.9013 39.8706 21.4729C39.8938 21.3356 39.9171 21.1981 39.9403 21.0608C39.9966 20.7278 39.9103 20.3835 39.7034 20.1165ZM38.7803 20.8654C38.7795 20.9027 36.2694 35.81 36.1894 36.0999C35.8817 37.2186 34.7664 38.1699 33.348 38.5234C31.4107 39.0063 29.5422 38.2272 29.1833 36.7869C29.0162 36.1164 29.2036 35.3906 29.711 34.743C30.2522 34.0523 31.0815 33.5395 32.0459 33.2991C32.7283 33.129 33.4273 33.1113 34.0676 33.2481C34.3919 33.3174 34.7344 33.2508 35.0079 33.0654C35.2832 32.8785 35.4655 32.5949 35.5212 32.2667L36.8033 24.7013C36.8598 24.3681 36.7736 24.0239 36.5668 23.7567C36.36 23.4896 36.0483 23.3198 35.7115 23.2909L25.9106 22.4515C25.287 22.3988 24.7164 22.8397 24.6119 23.4568L22.4844 36.0108C22.4816 36.0224 22.4792 36.0341 22.4771 36.0458C22.2687 37.2452 21.1076 38.3054 19.5877 38.6842C18.6233 38.9245 17.6505 38.861 16.8483 38.505C16.0963 38.1713 15.5902 37.6183 15.4231 36.9478C15.0641 35.5074 16.3483 33.9428 18.2858 33.4599C18.6648 33.3655 19.0491 33.3181 19.4258 33.3181C19.7254 33.3181 20.0201 33.3481 20.3033 33.4082C20.6274 33.4773 20.9699 33.4102 21.243 33.2247C21.518 33.0378 21.7 32.7544 21.7555 32.4264C21.7896 32.2254 23.8166 20.2649 23.8881 19.8429C23.9214 19.6464 23.9623 19.5534 24.1717 19.5713C24.3161 19.5836 38.64 20.8196 38.7486 20.8197C38.7736 20.8198 38.7808 20.8397 38.7803 20.8654Z" fill="black"/>
<path d="M13.8011 30.3298C11.8941 29.6168 11.0602 27.7576 10.7328 26.7128C10.6289 26.3811 10.3252 26.1582 9.97719 26.1582C9.97719 26.1582 9.97719 26.1582 9.97711 26.1582C9.62914 26.1582 9.32547 26.381 9.22148 26.7127V26.7128C8.89414 27.7576 8.06023 29.6168 6.15328 30.3298C5.84188 30.4463 5.6407 30.737 5.64063 31.0707C5.64055 31.4044 5.84172 31.6954 6.1532 31.8119C8.06016 32.5249 8.89414 34.3841 9.22148 35.4288C9.32547 35.7606 9.62914 35.9836 9.97719 35.9835C10.3252 35.9835 10.6289 35.7605 10.7327 35.4288C11.0601 34.3841 11.8941 32.5249 13.8012 31.8118C14.1126 31.6953 14.3138 31.4044 14.3137 31.0707C14.3136 30.737 14.1123 30.4463 13.8011 30.3298ZM9.97711 34.1197C9.51078 33.0813 8.70109 31.8419 7.33328 31.0709C8.70117 30.2998 9.51078 29.0604 9.97711 28.022C10.4434 29.0604 11.253 30.2998 12.621 31.0709C11.2531 31.8419 10.4435 33.0813 9.97711 34.1197Z" fill="black"/>
<path d="M23.9967 11.7664C25.3275 12.264 25.9133 13.5732 26.1438 14.3092C26.2406 14.6179 26.523 14.8253 26.8468 14.8253C27.1704 14.8253 27.4529 14.6179 27.5497 14.3092C27.7802 13.5732 28.3659 12.2641 29.6969 11.7664C29.9866 11.6581 30.1739 11.3875 30.174 11.0771C30.1741 10.7667 29.9869 10.4961 29.6969 10.3874C28.3659 9.88986 27.7803 8.58072 27.5497 7.84471C27.4529 7.53604 27.1705 7.32861 26.8468 7.32861C26.5231 7.32861 26.2406 7.53596 26.1438 7.84463C25.9131 8.58072 25.3274 9.88994 23.9966 10.3875C23.7067 10.496 23.5195 10.7667 23.5195 11.0771C23.5197 11.3875 23.707 11.6581 23.9967 11.7664ZM26.8467 9.21236C27.1817 9.86236 27.6963 10.5702 28.4746 11.077C27.6963 11.5838 27.1817 12.2915 26.8467 12.9415C26.5117 12.2916 25.997 11.5839 25.2188 11.077C25.997 10.5701 26.5117 9.86236 26.8467 9.21236Z" fill="black"/>
<path d="M31.8655 5.29648C33.6032 5.94617 34.3642 7.64367 34.6631 8.59781C34.7649 8.92281 35.0623 9.14117 35.4033 9.14117C35.7443 9.14117 36.0417 8.92281 36.1435 8.59781C36.2347 8.3068 36.3455 8.02109 36.4728 7.74891C36.6102 7.45555 36.4835 7.10648 36.1901 6.96914C35.8969 6.83203 35.5476 6.95844 35.4104 7.25195C35.408 7.25687 35.4057 7.26187 35.4034 7.26687C34.9731 6.34164 34.2496 5.26547 33.0617 4.57055C34.2495 3.87562 34.9731 2.79953 35.4033 1.87438C35.8337 2.79977 36.5573 3.87609 37.7456 4.57094C37.5841 4.66555 37.4276 4.76922 37.2767 4.88164C37.017 5.07523 36.9633 5.44258 37.1569 5.70234C37.3505 5.96195 37.7178 6.01562 37.9776 5.82219C38.2734 5.6018 38.5974 5.42492 38.9412 5.29641C39.2462 5.18234 39.4432 4.89742 39.4432 4.57055C39.4432 4.24367 39.2462 3.95883 38.9411 3.84461C37.2034 3.19492 36.4423 1.49742 36.1434 0.543281C36.0416 0.218359 35.7441 0 35.4032 0C35.0623 0 34.7648 0.218359 34.663 0.543359C34.3641 1.4975 33.6032 3.195 31.8653 3.84477C31.5603 3.95883 31.3633 4.24375 31.3633 4.57063C31.3633 4.8975 31.5604 5.18234 31.8655 5.29648Z" fill="black"/>
<path d="M9.10163 20.6605C9.06242 20.3236 7.15539 8.38685 7.12531 8.19654C7.09554 8.00865 7.10703 7.96349 7.29788 7.91685C7.75882 7.80427 16.4059 5.69232 16.4859 5.67271C16.6547 5.63146 16.7308 5.67295 16.7582 5.8463C16.9739 7.20795 17.8416 12.6849 17.8805 12.9307C17.9478 13.3557 17.7052 13.2949 17.3698 13.3683C17.1463 13.4171 16.926 13.4802 16.7102 13.5562C16.2827 13.7069 15.8733 13.9083 15.4915 14.1526C13.2649 15.5774 12.388 18.197 13.5366 19.992C13.7041 20.2539 13.9093 20.4898 14.1464 20.6934C14.3921 20.9044 14.7624 20.8762 14.9734 20.6305C15.1844 20.3847 15.1562 20.0145 14.9105 19.8035C14.7603 19.6745 14.6305 19.5252 14.5246 19.3599C13.7246 18.1096 14.4419 16.2168 16.1237 15.1406C16.7161 14.7616 17.373 14.5217 18.0234 14.4469C18.3528 14.4089 18.6563 14.2363 18.8562 13.9733C19.0574 13.7083 19.1395 13.3814 19.0874 13.0527L17.8869 5.47373C17.8341 5.13998 17.6424 4.8413 17.3611 4.65412C17.0797 4.46685 16.7302 4.4056 16.4019 4.48576L6.84585 6.81974C6.23788 6.96834 5.83835 7.56896 5.93624 8.18716C5.93648 8.18865 5.93671 8.19013 5.93695 8.19162C6.14671 9.51584 7.25007 16.4804 7.59195 18.6383C7.69234 19.2721 7.79687 19.9054 7.8932 20.5398C8.12468 22.0651 7.29281 23.4182 6.03726 24.2218C5.20007 24.7576 4.25804 25.0076 3.38398 24.9266C2.56476 24.8504 1.90851 24.488 1.53617 23.9061C0.736088 22.6557 1.45343 20.7629 3.13531 19.6867C3.72624 19.3086 4.38163 19.0689 5.03078 18.9935C5.35992 18.9552 5.66304 18.7824 5.86257 18.5194C6.06351 18.2546 6.14546 17.9279 6.09343 17.5994L4.0557 4.73724C4.05242 4.71685 4.06515 4.69779 4.08515 4.69287L18.4907 1.17435C18.4955 1.1731 18.5076 1.17013 18.5218 1.17974C18.5361 1.1892 18.5381 1.2017 18.5388 1.2063C18.6349 1.81146 20.6363 14.4141 20.8244 15.5983C20.9548 16.4196 21.0061 17.1324 20.6376 17.904C20.2888 18.634 19.7037 19.2417 19.0259 19.6754C18.4194 20.0636 17.7474 20.3053 17.0825 20.3745C16.7604 20.408 16.5264 20.6965 16.5599 21.0186C16.5934 21.3408 16.8818 21.5741 17.204 21.5412C18.0498 21.4532 18.8984 21.1497 19.658 20.6635C20.5755 20.0765 21.3451 19.2294 21.7753 18.2233C21.9727 17.7615 22.0983 17.2661 22.1154 16.7633C22.1328 16.2515 22.0463 15.8134 21.9662 15.3086C21.7716 14.0833 19.7907 1.61037 19.6973 1.0224C19.6444 0.688726 19.4527 0.390133 19.1714 0.203179C18.8902 0.015992 18.5408 -0.045258 18.2124 0.0349763L3.80687 3.55341C3.19882 3.70193 2.79929 4.30255 2.89718 4.92084C2.9057 4.97474 4.8782 17.4178 4.89421 17.527C4.94624 17.8814 4.67703 17.8506 4.39421 17.9117C4.17703 17.9586 3.96281 18.019 3.75288 18.0916C3.31413 18.2433 2.89406 18.4486 2.50304 18.6988C0.2764 20.1235 -0.600553 22.7431 0.548119 24.5383C1.11968 25.4315 2.08828 25.9842 3.27546 26.0946C4.46406 26.2051 5.66968 25.8496 6.66945 25.2098C7.6921 24.5554 8.53632 23.573 8.92171 22.4119C9.02046 22.1144 9.08788 21.806 9.11671 21.4937C9.14242 21.2148 9.1339 20.9376 9.10163 20.6605Z" fill="black"/>
</g>
<defs>
<clipPath id="clip0_204_4206">
<rect width="40" height="40" fill="white"/>
</clipPath>
</defs>
</svg>
