<svg width="40" height="40" viewBox="0 0 40 40" fill="none" xmlns="http://www.w3.org/2000/svg">
<path d="M12.3828 14.772V20.5404C12.3828 20.8641 12.6451 21.1263 12.9688 21.1263C13.2924 21.1263 13.5547 20.8641 13.5547 20.5404V14.772C13.5547 14.4483 13.2924 14.186 12.9688 14.186C12.6451 14.186 12.3828 14.4483 12.3828 14.772Z" fill="black"/>
<path d="M19.4141 15.9414V19.3709C19.4141 19.6946 19.6763 19.9569 20 19.9569C20.3237 19.9569 20.5859 19.6946 20.5859 19.3709V15.9414C20.5859 15.6177 20.3237 15.3555 20 15.3555C19.6763 15.3555 19.4141 15.6177 19.4141 15.9414Z" fill="black"/>
<path d="M17.0703 14.5078V20.8042C17.0703 21.1279 17.3326 21.3902 17.6562 21.3902C17.9799 21.3902 18.2422 21.1279 18.2422 20.8042V14.5078C18.2422 14.1841 17.9799 13.9219 17.6562 13.9219C17.3326 13.9219 17.0703 14.1842 17.0703 14.5078Z" fill="black"/>
<path d="M14.7266 16.0996V19.2126C14.7266 19.5363 14.9888 19.7985 15.3125 19.7985C15.6362 19.7985 15.8984 19.5363 15.8984 19.2126V16.0996C15.8984 15.7759 15.6362 15.5137 15.3125 15.5137C14.9888 15.5137 14.7266 15.776 14.7266 16.0996Z" fill="black"/>
<path d="M21.7578 13.6445V21.6682C21.7578 21.9919 22.0201 22.2541 22.3438 22.2541C22.6674 22.2541 22.9297 21.9919 22.9297 21.6682V13.6445C22.9297 13.3209 22.6674 13.0586 22.3438 13.0586C22.0201 13.0586 21.7578 13.3209 21.7578 13.6445Z" fill="black"/>
<path d="M31.1328 15.7217V19.5907C31.1328 19.9143 31.3951 20.1766 31.7188 20.1766C32.0424 20.1766 32.3047 19.9143 32.3047 19.5907V15.7217C32.3047 15.398 32.0424 15.1357 31.7188 15.1357C31.3951 15.1357 31.1328 15.3981 31.1328 15.7217Z" fill="black"/>
<path d="M24.1016 12.957V22.3552C24.1016 22.6789 24.3638 22.9412 24.6875 22.9412C25.0112 22.9412 25.2734 22.6789 25.2734 22.3552V12.957C25.2734 12.6334 25.0112 12.3711 24.6875 12.3711C24.3638 12.3711 24.1016 12.6334 24.1016 12.957Z" fill="black"/>
<path d="M28.7891 16.0659V19.2462C28.7891 19.5698 29.0513 19.8321 29.375 19.8321C29.6987 19.8321 29.9609 19.5698 29.9609 19.2462V16.0659C29.9609 15.7422 29.6987 15.48 29.375 15.48C29.0513 15.48 28.7891 15.7423 28.7891 16.0659Z" fill="black"/>
<path d="M26.4453 15.3369V19.9751C26.4453 20.2988 26.7076 20.5611 27.0312 20.5611C27.3549 20.5611 27.6172 20.2988 27.6172 19.9751V15.3369C27.6172 15.0132 27.3549 14.751 27.0312 14.751C26.7076 14.751 26.4453 15.0133 26.4453 15.3369Z" fill="black"/>
<path d="M0.585938 20.6602C0.909609 20.6602 1.17188 20.3979 1.17188 20.0742V8.28125C1.17188 7.31203 1.96047 6.52344 2.92969 6.52344H31.1016C31.4253 6.52344 31.6876 6.26117 31.6876 5.9375C31.6876 5.61383 31.4253 5.35156 31.1016 5.35156H2.92969C1.31422 5.35156 0 6.66578 0 8.28125V20.0742C0 20.3979 0.262266 20.6602 0.585938 20.6602Z" fill="black"/>
<path d="M10.0391 12.8945V22.418C10.0391 22.7416 10.3013 23.0039 10.625 23.0039C10.9487 23.0039 11.2109 22.7416 11.2109 22.418V12.8945C11.2109 12.5709 10.9487 12.3086 10.625 12.3086C10.3013 12.3086 10.0391 12.5709 10.0391 12.8945Z" fill="black"/>
<path d="M34.6484 18.7746V16.5376C34.6484 16.2139 34.3862 15.9517 34.0625 15.9517C33.7388 15.9517 33.4766 16.2139 33.4766 16.5376V18.7746C33.4766 19.0982 33.7388 19.3605 34.0625 19.3605C34.3862 19.3605 34.6484 19.0982 34.6484 18.7746Z" fill="black"/>
<path d="M36.9922 18.7746V16.5376C36.9922 16.2139 36.7299 15.9517 36.4062 15.9517C36.0826 15.9517 35.8203 16.2139 35.8203 16.5376V18.7746C35.8203 19.0982 36.0826 19.3605 36.4062 19.3605C36.7299 19.3605 36.9922 19.0982 36.9922 18.7746Z" fill="black"/>
<path d="M29.257 28.9062C28.9334 28.9062 28.6711 29.1685 28.6711 29.4922V30.0781H14.0117C13.688 30.0781 13.4258 30.3404 13.4258 30.6641C13.4258 30.9877 13.688 31.25 14.0117 31.25H28.6711V31.8359C28.6711 32.1596 28.9334 32.4219 29.257 32.4219C29.5807 32.4219 29.843 32.1596 29.843 31.8359V31.25H34.7258C35.0495 31.25 35.3117 30.9877 35.3117 30.6641C35.3117 30.3404 35.0495 30.0781 34.7258 30.0781H29.843V29.4922C29.843 29.1685 29.5807 28.9062 29.257 28.9062Z" fill="black"/>
<path d="M5.10055 28.6328C4.48438 28.6328 4.38602 29.3541 4.35375 29.5913C4.31453 29.8788 4.29297 30.2598 4.29297 30.6641C4.29297 31.0683 4.31453 31.4493 4.35375 31.7367C4.38602 31.9738 4.48438 32.6952 5.10055 32.6952C5.42594 32.6952 6.21102 32.322 6.81234 32.0088C8.1257 31.3249 8.34727 31.0412 8.34727 30.664C8.34727 30.2867 8.12562 30.003 6.81234 29.3191C6.21102 29.006 5.42586 28.6328 5.10055 28.6328ZM5.48805 31.3514C5.45695 30.9473 5.45695 30.3808 5.48805 29.9766C5.88844 30.1568 6.43656 30.4365 6.82656 30.664C6.43648 30.8915 5.88844 31.1713 5.48805 31.3514Z" fill="black"/>
<path d="M5.35156 16.1885V19.1244C5.35156 19.4481 5.61383 19.7104 5.9375 19.7104C6.26117 19.7104 6.52344 19.4481 6.52344 19.1244V16.1885C6.52344 15.8648 6.26117 15.6025 5.9375 15.6025C5.61383 15.6025 5.35156 15.8648 5.35156 16.1885Z" fill="black"/>
<path d="M37.0703 5.35156H33.4454C33.1217 5.35156 32.8595 5.61383 32.8595 5.9375C32.8595 6.26117 33.1217 6.52344 33.4454 6.52344H37.0703C38.0395 6.52344 38.8281 7.31203 38.8281 8.28125V26.6797H1.17188V22.418C1.17188 22.0943 0.909609 21.832 0.585938 21.832C0.262266 21.832 0 22.0943 0 22.418V31.7188C0 33.3342 1.31422 34.6484 2.92969 34.6484H24.5703C24.894 34.6484 25.1562 34.3862 25.1562 34.0625C25.1562 33.7388 24.894 33.4766 24.5703 33.4766H2.92969C1.96047 33.4766 1.17188 32.688 1.17188 31.7188V27.8516H38.8281V31.7188C38.8281 32.688 38.0395 33.4766 37.0703 33.4766H26.9141C26.5904 33.4766 26.3281 33.7388 26.3281 34.0625C26.3281 34.3862 26.5904 34.6484 26.9141 34.6484H37.0703C38.6858 34.6484 40 33.3342 40 31.7188V8.28125C40 6.66578 38.6858 5.35156 37.0703 5.35156Z" fill="black"/>
<path d="M7.69531 13.8994V21.4127C7.69531 21.7364 7.95758 21.9986 8.28125 21.9986C8.60492 21.9986 8.86719 21.7364 8.86719 21.4127V13.8994C8.86719 13.5757 8.60492 13.3135 8.28125 13.3135C7.95758 13.3135 7.69531 13.5757 7.69531 13.8994Z" fill="black"/>
<path d="M3.00781 16.521V18.7916C3.00781 19.1153 3.27008 19.3776 3.59375 19.3776C3.91742 19.3776 4.17969 19.1153 4.17969 18.7916V16.521C4.17969 16.1973 3.91742 15.9351 3.59375 15.9351C3.27008 15.9351 3.00781 16.1973 3.00781 16.521Z" fill="black"/>
</svg>
