<svg width="40" height="40" viewBox="0 0 40 40" fill="none" xmlns="http://www.w3.org/2000/svg">
<g clip-path="url(#clip0_204_4226)">
<path d="M37.506 13.4872C38.8811 13.4872 39.9999 12.3684 39.9999 10.9933V4.92522C39.9999 3.5498 38.8811 2.43103 37.506 2.43103H37.4178C37.3565 1.08032 36.2383 0 34.8727 0H5.12725C3.76159 0 2.64343 1.08032 2.58209 2.43103H2.49389C1.11877 2.43103 0 3.5501 0 4.92522V10.9933C0 12.3684 1.11877 13.4872 2.49389 13.4872H2.57904V14.472H2.49389C1.11877 14.472 0 15.5908 0 16.9659V23.034C0 24.4094 1.11877 25.5282 2.49389 25.5282H2.57904V26.5127H2.49389C1.11877 26.5127 0 27.6315 0 29.0069V35.075C0 36.4501 1.11877 37.5689 2.49389 37.5689H2.58209C2.64343 38.9199 3.76159 39.9999 5.12725 39.9999H34.8727C36.2386 39.9999 37.3565 38.9196 37.4178 37.5689H37.506C38.8811 37.5689 39.9999 36.4501 39.9999 35.075V29.0069C39.9999 27.6315 38.8811 26.5127 37.506 26.5127H37.4209V25.5282H37.506C38.8811 25.5282 39.9999 24.4091 39.9999 23.034V16.9659C39.9999 15.5908 38.8811 14.472 37.506 14.472H37.4209V13.4872H37.506ZM5.12725 1.17187H34.8727C35.592 1.17187 36.1834 1.72699 36.2432 2.43103H3.75701C3.81652 1.72699 4.40795 1.17187 5.12725 1.17187ZM38.828 29.0069V35.075C38.828 35.8041 38.2351 36.397 37.506 36.397H9.92247C9.16655 36.397 9.16655 37.5689 9.92247 37.5689H36.2429C36.1834 38.2732 35.592 38.828 34.8727 38.828H5.12725C4.40795 38.828 3.81652 38.2729 3.75701 37.5689H6.40715C7.16277 37.5689 7.16277 36.397 6.40715 36.397H2.49389C1.76483 36.397 1.17187 35.8038 1.17187 35.075V29.0069C1.17187 28.2775 1.76483 27.6846 2.49389 27.6846H37.506C38.2351 27.6846 38.828 28.2775 38.828 29.0069ZM38.828 16.9659V23.034C38.828 23.7631 38.2351 24.3563 37.506 24.3563H32.1868C31.4309 24.3563 31.4309 25.5282 32.1868 25.5282H36.249V26.5127H3.75091V25.5282H28.2806C29.0365 25.5282 29.0365 24.3563 28.2806 24.3563H2.49389C1.76483 24.3563 1.17187 23.7631 1.17187 23.034V16.9659C1.17187 16.2368 1.76483 15.6439 2.49389 15.6439H37.506C38.2351 15.6436 38.828 16.2368 38.828 16.9659ZM36.249 14.472H3.75091V13.4872H6.32903C7.08464 13.4872 7.08464 12.3153 6.32903 12.3153H2.49389C1.76483 12.3153 1.17187 11.7224 1.17187 10.9933V4.92522C1.17187 4.19616 1.76483 3.6029 2.49389 3.6029H37.506C38.2351 3.6029 38.828 4.19616 38.828 4.92522V10.9933C38.828 11.7224 38.2351 12.3153 37.506 12.3153H36.9759C36.9308 12.3044 36.8838 12.2976 36.8349 12.2976C36.7861 12.2976 36.7391 12.3044 36.694 12.3153H10.5475C9.79154 12.3153 9.79154 13.4872 10.5475 13.4872H36.249V14.472Z" fill="black"/>
<path d="M4.60899 29.8823C3.8549 29.8823 3.85368 31.0542 4.60899 31.0542C5.36308 31.0542 5.3643 29.8823 4.60899 29.8823Z" fill="black"/>
<path d="M7.96825 29.8823C7.21447 29.8823 7.21294 31.0542 7.96825 31.0542C8.72234 31.0542 8.72356 29.8823 7.96825 29.8823Z" fill="black"/>
<path d="M4.60899 32.9292C3.8549 32.9292 3.85368 34.1011 4.60899 34.1011C5.36308 34.1011 5.3643 32.9292 4.60899 32.9292Z" fill="black"/>
<path d="M7.96825 32.9292C7.21447 32.9292 7.21294 34.1011 7.96825 34.1011C8.72234 34.1011 8.72356 32.9292 7.96825 32.9292Z" fill="black"/>
<path d="M11.3277 29.8823C10.5737 29.8823 10.5724 31.0542 11.3277 31.0542C12.0818 31.0542 12.0827 29.8823 11.3277 29.8823Z" fill="black"/>
<path d="M11.3277 32.9292C10.5737 32.9292 10.5724 34.1011 11.3277 34.1011C12.0818 34.1011 12.0827 32.9292 11.3277 32.9292Z" fill="black"/>
<path d="M4.60899 18.0083C3.8549 18.0083 3.85368 19.1799 4.60899 19.1799C5.36308 19.1799 5.3643 18.0083 4.60899 18.0083Z" fill="black"/>
<path d="M7.96825 18.0083C7.21447 18.0083 7.21294 19.1799 7.96825 19.1799C8.72234 19.1799 8.72356 18.0083 7.96825 18.0083Z" fill="black"/>
<path d="M4.60899 21.0547C3.8549 21.0547 3.85368 22.2266 4.60899 22.2266C5.36308 22.2266 5.3643 21.0547 4.60899 21.0547Z" fill="black"/>
<path d="M7.96825 21.0547C7.21447 21.0547 7.21294 22.2266 7.96825 22.2266C8.72234 22.2266 8.72356 21.0547 7.96825 21.0547Z" fill="black"/>
<path d="M11.3277 18.0083C10.5737 18.0083 10.5724 19.1799 11.3277 19.1799C12.0818 19.1799 12.0827 18.0083 11.3277 18.0083Z" fill="black"/>
<path d="M11.3277 21.0547C10.5737 21.0547 10.5724 22.2266 11.3277 22.2266C12.0818 22.2266 12.0827 21.0547 11.3277 21.0547Z" fill="black"/>
<path d="M4.60899 5.89941C3.8549 5.89941 3.85368 7.07129 4.60899 7.07129C5.36308 7.07129 5.3643 5.89941 4.60899 5.89941Z" fill="black"/>
<path d="M7.96825 5.89941C7.21447 5.89941 7.21294 7.07129 7.96825 7.07129C8.72234 7.07129 8.72356 5.89941 7.96825 5.89941Z" fill="black"/>
<path d="M4.60899 8.9458C3.8549 8.9458 3.85368 10.1177 4.60899 10.1177C5.36308 10.1177 5.3643 8.9458 4.60899 8.9458Z" fill="black"/>
<path d="M7.96825 8.9458C7.21447 8.9458 7.21294 10.1177 7.96825 10.1177C8.72234 10.1177 8.72356 8.9458 7.96825 8.9458Z" fill="black"/>
<path d="M11.3277 7.07129C12.0818 7.07129 12.0831 5.89941 11.3277 5.89941C10.5737 5.89941 10.5724 7.07129 11.3277 7.07129Z" fill="black"/>
<path d="M11.3277 10.1177C12.0818 10.1177 12.0831 8.9458 11.3277 8.9458C10.5737 8.9458 10.5724 10.1177 11.3277 10.1177Z" fill="black"/>
<path d="M26.7578 10.3132C28.0286 10.3132 29.0622 9.27923 29.0622 8.00848C29.0622 6.73804 28.0286 5.7041 26.7578 5.7041C25.4871 5.7041 24.4531 6.73804 24.4531 8.00848C24.4531 9.27923 25.4871 10.3132 26.7578 10.3132ZM26.7578 6.87597C27.3822 6.87597 27.8906 7.38409 27.8906 8.00848C27.8906 8.63317 27.3822 9.14129 26.7578 9.14129C26.1331 9.14129 25.625 8.63317 25.625 8.00848C25.625 7.38409 26.1331 6.87597 26.7578 6.87597Z" fill="black"/>
<path d="M33.7109 10.3132C34.9817 10.3132 36.0153 9.27923 36.0153 8.00848C36.0153 6.73804 34.9817 5.7041 33.7109 5.7041C32.4399 5.7041 31.4062 6.73804 31.4062 8.00848C31.4062 9.27923 32.4399 10.3132 33.7109 10.3132ZM33.7109 6.87597C34.3353 6.87597 34.8434 7.38409 34.8434 8.00848C34.8434 8.63317 34.3353 9.14129 33.7109 9.14129C33.0862 9.14129 32.5781 8.63317 32.5781 8.00848C32.5781 7.38409 33.0862 6.87597 33.7109 6.87597Z" fill="black"/>
<path d="M26.7578 17.813C25.4871 17.813 24.4531 18.8466 24.4531 20.1174C24.4531 21.3881 25.4871 22.422 26.7578 22.422C28.0286 22.422 29.0622 21.3881 29.0622 20.1174C29.0622 18.8466 28.0286 17.813 26.7578 17.813ZM26.7578 21.2502C26.1331 21.2502 25.625 20.7421 25.625 20.1174C25.625 19.493 26.1331 18.9846 26.7578 18.9846C27.3822 18.9846 27.8906 19.493 27.8906 20.1174C27.8906 20.7421 27.3822 21.2502 26.7578 21.2502Z" fill="black"/>
<path d="M33.7109 17.813C32.4399 17.813 31.4062 18.8466 31.4062 20.1174C31.4062 21.3881 32.4399 22.422 33.7109 22.422C34.9817 22.422 36.0153 21.3881 36.0153 20.1174C36.0153 18.8466 34.9814 17.813 33.7109 17.813ZM33.7109 21.2502C33.0862 21.2502 32.5781 20.7421 32.5781 20.1174C32.5781 19.493 33.0862 18.9846 33.7109 18.9846C34.3353 18.9846 34.8434 19.493 34.8434 20.1174C34.8434 20.7421 34.3353 21.2502 33.7109 21.2502Z" fill="black"/>
<path d="M26.7578 29.687C25.4871 29.687 24.4531 30.7209 24.4531 31.9917C24.4531 33.2624 25.4871 34.2964 26.7578 34.2964C28.0286 34.2964 29.0622 33.2624 29.0622 31.9917C29.0622 30.7209 28.0286 29.687 26.7578 29.687ZM26.7578 33.1245C26.1331 33.1245 25.625 32.6164 25.625 31.9917C25.625 31.367 26.1331 30.8589 26.7578 30.8589C27.3822 30.8589 27.8906 31.367 27.8906 31.9917C27.8906 32.6164 27.3822 33.1245 26.7578 33.1245Z" fill="black"/>
<path d="M33.7109 29.687C32.4399 29.687 31.4062 30.7209 31.4062 31.9917C31.4062 33.2624 32.4399 34.2964 33.7109 34.2964C34.9817 34.2964 36.0153 33.2624 36.0153 31.9917C36.0153 30.7209 34.9814 29.687 33.7109 29.687ZM33.7109 33.1245C33.0862 33.1245 32.5781 32.6164 32.5781 31.9917C32.5781 31.367 33.0862 30.8589 33.7109 30.8589C34.3353 30.8589 34.8434 31.367 34.8434 31.9917C34.8434 32.6164 34.3353 33.1245 33.7109 33.1245Z" fill="black"/>
</g>
<defs>
<clipPath id="clip0_204_4226">
<rect width="40" height="40" fill="white"/>
</clipPath>
</defs>
</svg>
