<svg width="40" height="40" viewBox="0 0 40 40" fill="none" xmlns="http://www.w3.org/2000/svg">
<path d="M39.4897 24.7819C39.8132 24.7819 40.0756 24.5194 40.0756 24.196V15.6763C40.0756 15.3528 39.8132 15.0904 39.4897 15.0904H35.8358C35.2291 11.352 33.4957 7.96634 30.8013 5.27163C27.4016 1.87226 22.882 0 18.0742 0C13.2665 0 8.74678 1.87226 5.34711 5.27163C2.50347 8.11527 0.731309 11.7218 0.222274 15.701C-0.270587 19.5551 0.509751 23.5282 2.41985 26.8879C2.57977 27.1693 2.93743 27.2676 3.21881 27.1077C3.50018 26.9477 3.59845 26.5901 3.43853 26.3087C1.65294 23.1681 0.923571 19.4538 1.38469 15.8497C1.86046 12.1302 3.51727 8.75888 6.17567 6.10049C9.35409 2.92207 13.5796 1.17188 18.0742 1.17188C22.5689 1.17188 26.7943 2.92207 29.9725 6.10049C32.4462 8.57395 34.0542 11.6706 34.6484 15.0904H26.6772C26.2157 13.7253 25.4198 12.4497 24.323 11.4093C24.0883 11.1866 23.7175 11.1963 23.4948 11.431C23.272 11.6657 23.2818 12.0368 23.5164 12.2596C24.3248 13.0259 24.9938 13.9866 25.4305 15.0904H21.4226C19.7457 13.1537 16.7558 13.0442 14.9379 14.8624C12.1556 17.6444 14.1405 22.4348 18.0733 22.4348C18.2476 22.4348 18.4227 22.4238 18.5976 22.403V25.8906C16.317 26.0447 14.1115 25.2214 12.4815 23.5914C9.39773 20.5076 9.39773 15.4899 12.4815 12.4061C15.0108 9.87644 18.9376 9.35917 22.0305 11.1481C22.3104 11.3102 22.669 11.2143 22.831 10.9342C22.9931 10.654 22.8972 10.2958 22.6171 10.1337C19.0657 8.07956 14.557 8.67313 11.653 11.5772C9.93758 13.2926 8.99306 15.5732 8.99306 17.9987C8.99306 20.4243 9.93758 22.7049 11.653 24.42C13.4374 26.2046 15.9081 27.223 18.5976 27.064V30.6889C16.0323 29.9394 13.4041 31.4561 12.6949 33.9461C10.2534 33.123 8.01039 31.7314 6.17597 29.897C5.56806 29.2891 5.00348 28.632 4.49811 27.9441C4.30676 27.6832 3.93994 27.6271 3.67901 27.8187C3.41839 28.0104 3.36224 28.3769 3.55389 28.6378C4.09405 29.3733 4.69769 30.0758 5.34742 30.7255C7.35792 32.7363 9.82833 34.2482 12.516 35.1198C12.5148 35.1628 12.5127 35.2055 12.5127 35.2489C12.5127 37.8685 14.644 39.9999 17.264 39.9999C19.7777 39.9999 21.8404 38.0376 22.0037 35.5644C25.3371 34.8225 28.3709 33.1563 30.8013 30.7255C33.4234 28.1034 35.1406 24.8142 35.7885 21.1863H36.6653V30.691C33.6059 29.792 30.5733 32.1022 30.5733 35.2486C30.5733 37.8685 32.7047 39.9999 35.3243 39.9999C37.9443 39.9999 40.0756 37.8685 40.0756 35.2486C40.0756 32.5892 40.0756 27.5819 40.0756 26.168C40.0756 25.8445 39.8135 25.5821 39.4897 25.5821C39.1662 25.5821 38.9038 25.8445 38.9038 26.168V35.2486C38.9038 37.2224 37.2982 38.828 35.3243 38.828C33.3508 38.828 31.7452 37.2224 31.7452 35.2486C31.7452 33.275 33.3508 31.6691 35.3243 31.6691C35.9075 31.6691 36.4645 31.8058 36.9796 32.0753C37.3693 32.2789 37.8372 31.9957 37.8372 31.5559V20.6007C37.8372 20.2772 37.5747 20.0147 37.2512 20.0147H21.4223C21.0985 20.0147 20.8364 20.2772 20.8364 20.6007C20.8364 20.6089 20.8431 35.2366 20.8431 35.2489C20.8431 37.2227 19.2375 38.8283 17.2637 38.8283C14.1335 38.8283 12.498 35.052 14.6813 32.7745C15.7842 31.6258 17.502 31.338 18.9131 32.0723C19.3025 32.2752 19.7695 31.992 19.7695 31.5526V16.2623H38.9038V24.196C38.9038 24.5194 39.1662 24.7819 39.4897 24.7819ZM29.9725 29.8973C27.7633 32.1064 25.0219 33.6406 22.0079 34.3617V26.1854C24.1771 25.1441 25.7821 23.3085 26.5783 21.1866H34.5974C33.9642 24.4959 32.3742 27.4955 29.9725 29.8973ZM22.0082 21.1866H25.3158C24.6157 22.7839 23.4078 24.0602 22.0082 24.8628V21.1866ZM15.7665 15.691C16.7784 14.679 18.3156 14.4599 19.5555 15.0904H19.1835C18.8597 15.0904 18.5976 15.3528 18.5976 15.6763V21.2205C15.4799 21.7262 13.5329 17.9246 15.7665 15.691Z" fill="black"/>
</svg>
