<svg width="40" height="40" viewBox="0 0 40 40" fill="none" xmlns="http://www.w3.org/2000/svg">
<g clip-path="url(#clip0_204_4176)">
<path d="M33.552 39.9985H2.53692C2.21327 39.9985 1.95103 39.7363 1.95103 39.4126V34.7255C1.95103 34.4018 2.21327 34.1396 2.53692 34.1396H4.8805C5.20415 34.1396 5.46639 34.4018 5.46639 34.7255C5.46639 35.0491 5.20415 35.3113 4.8805 35.3113H3.12282V38.8267H6.63818V34.7255C6.63818 34.4018 6.90043 34.1396 7.22407 34.1396H9.28611C6.9023 32.7972 4.84808 30.9324 3.26148 28.6539C1.12781 25.5897 0 21.9895 0 18.2423C0 8.1843 8.18283 0.00146484 18.2408 0.00146484C21.7189 0.00146484 25.1013 0.984048 28.0222 2.84313C28.2952 3.01687 28.3756 3.37895 28.2019 3.65198C28.0281 3.92485 27.6661 4.00539 27.393 3.83165C24.6605 2.09248 21.4958 1.17325 18.2409 1.17325C8.82903 1.17325 1.17187 8.83042 1.17187 18.2423C1.17187 25.3219 5.42593 31.5575 12.0126 34.1396H24.469C30.958 31.595 35.3099 25.2205 35.3099 18.2423C35.3099 13.1901 33.0897 8.42592 29.2188 5.17132C28.9711 4.96313 28.9391 4.59355 29.1474 4.34591C29.3556 4.09819 29.7251 4.06616 29.9728 4.27451C34.1093 7.75222 36.4817 12.8432 36.4817 18.2423C36.4817 22.0023 35.3468 25.6128 33.1996 28.6834C33.1882 28.6999 33.1766 28.7163 33.165 28.7328L34.9663 30.6061L37.4939 28.1646L36.1012 26.7028C35.878 26.4685 35.887 26.0976 36.1212 25.8744C36.3556 25.6512 36.7263 25.6602 36.9495 25.8944L38.7436 27.7775C40.0023 29.0805 40.3454 30.93 39.636 32.6015C39.6297 32.6162 37.641 37.3005 37.6383 37.3064C36.9253 38.9675 35.3613 39.9985 33.552 39.9985ZM31.2457 38.8267H33.552C33.9784 38.8267 34.3863 38.749 34.7611 38.6032V35.3113H31.2457V38.8267ZM26.5586 38.8267H30.0739V35.3113H26.5586V38.8267ZM21.8714 38.8267H25.3868V35.3113H21.8714V38.8267ZM17.1843 38.8267H20.6996V35.3113H17.1843V38.8267ZM12.4971 38.8267H16.0125V35.3113H12.4971V38.8267ZM7.80997 38.8267H11.3253V35.3113H7.80997V38.8267ZM35.9329 35.2952V37.8106C36.1938 37.5321 36.4093 37.2028 36.5671 36.8309C36.5694 36.8255 37.3751 34.9282 37.3751 34.9282C36.928 35.1271 36.4424 35.2526 35.9329 35.2952ZM27.196 34.1396H35.5424C35.8581 34.1396 36.1637 34.0969 36.4533 34.0156C36.3097 33.7508 36.1272 33.5032 35.9078 33.2759L32.4512 29.6809C30.99 31.4974 29.2108 33.005 27.196 34.1396ZM35.7784 31.4508L36.7515 32.4628C37.0559 32.7781 37.3083 33.1247 37.5053 33.4977C37.9467 33.1674 38.3047 32.7203 38.5408 32.182L38.5571 32.1437C38.559 32.1388 38.5612 32.1341 38.5634 32.1293C39.0005 31.0862 38.8824 29.9506 38.2689 29.0452L35.7784 31.4508ZM18.2408 20C17.2717 20 16.4832 19.2114 16.4832 18.2423C16.4832 17.2732 17.2717 16.4846 18.2408 16.4846C19.21 16.4846 19.9985 17.2732 19.9985 18.2423C19.9985 19.2114 19.21 20 18.2408 20ZM18.2408 17.6564C17.9177 17.6564 17.6549 17.9192 17.6549 18.2423C17.6549 18.5654 17.9177 18.8282 18.2408 18.8282C18.5639 18.8282 18.8267 18.5654 18.8267 18.2423C18.8267 17.9192 18.5639 17.6564 18.2408 17.6564ZM18.2408 12.6064C16.2769 12.6064 14.3888 10.9496 13.6681 10.2373C12.6115 9.19297 11.3776 7.52122 11.3776 6.24717C11.3776 4.05905 14.3923 2.34504 18.2408 2.34504C22.0894 2.34504 25.1041 4.05905 25.1041 6.24717C25.1041 7.5213 23.8702 9.19297 22.8135 10.2373C22.0929 10.9496 20.2048 12.6064 18.2408 12.6064ZM12.7968 7.11828C13.0969 7.76495 13.6673 8.58887 14.4919 9.40397C15.7784 10.6754 17.1798 11.4346 18.2408 11.4346C19.3019 11.4346 20.7033 10.6754 21.9898 9.40397C22.8144 8.58887 23.3847 7.76511 23.6849 7.11836C22.0013 6.29412 20.1288 5.86033 18.2408 5.86033C16.3532 5.8604 14.4801 6.2942 12.7968 7.11828ZM18.2408 4.68862C20.19 4.68862 22.1245 5.11132 23.8851 5.91689C23.7319 5.37739 23.2116 4.84595 22.4059 4.42036C21.3031 3.83766 19.8239 3.51683 18.2408 3.51683C16.6577 3.51683 15.1786 3.83766 14.0758 4.42028C13.2701 4.84579 12.7498 5.37732 12.5966 5.91673C14.357 5.1114 16.2921 4.68862 18.2408 4.68862ZM4.71192 21.0629C2.6309 20.3868 1.93236 16.99 3.12164 13.3298C4.31093 9.66958 6.87262 7.33209 8.95363 8.00821C10.1653 8.40194 11.374 10.092 12.0407 11.4197C12.4955 12.3252 13.4877 14.6329 12.8808 16.5007H12.8808C12.4881 17.7096 11.4324 18.6679 10.616 19.2589C10.354 19.4487 9.98762 19.39 9.79779 19.1279C9.60804 18.8658 9.66671 18.4995 9.9288 18.3097C10.8834 17.6186 11.5359 16.8476 11.7663 16.1386C12.0942 15.1296 11.8053 13.562 10.9936 11.9457C10.4732 10.9096 9.86591 10.1126 9.34368 9.62724C8.03956 10.9738 7.04838 12.6205 6.46499 14.4161C5.88167 16.2114 5.71551 18.1268 5.97901 19.9825L5.98565 19.9809C6.52124 19.9158 7.21423 19.7341 8.00269 19.3952C8.30001 19.2673 8.64452 19.4049 8.77232 19.7022C8.90012 19.9995 8.76263 20.344 8.46531 20.4718C7.89965 20.7148 6.66474 21.1843 5.56881 21.1843C5.26703 21.1843 4.9758 21.1487 4.71192 21.0629ZM5.35054 14.054C5.95284 12.2002 6.95269 10.491 8.26283 9.06556C7.7024 9.04454 7.0362 9.37514 6.38242 10.0099C5.48756 10.8787 4.72528 12.1863 4.23609 13.6919C3.74691 15.1976 3.59497 16.7035 3.80831 17.9324C3.96408 18.8301 4.30882 19.4892 4.77449 19.8016C4.55247 17.8784 4.74832 15.9074 5.35054 14.054ZM14.9281 22.8018C16.5169 23.9562 17.0707 26.4063 17.2351 27.4062C17.476 28.8721 17.4917 30.9499 16.7427 31.9807C15.4566 33.7508 12.0102 33.3656 8.89661 31.1035C5.78301 28.8414 4.35155 25.6826 5.63771 23.9124C6.38664 22.8816 8.36743 22.2545 9.83615 22.0307C10.8379 21.878 13.3393 21.6474 14.9281 22.8018ZM16.1067 30.4417C16.244 29.7421 16.2668 28.7403 16.0788 27.5962C15.7854 25.8114 15.0978 24.3735 14.2394 23.7498C13.381 23.1262 11.801 22.9165 10.0129 23.189C8.86669 23.3637 7.92098 23.695 7.29805 24.0418C8.17564 25.6982 9.43555 27.1498 10.963 28.2594C12.4901 29.369 14.2604 30.1189 16.1067 30.4417ZM10.2742 29.2074C8.69725 28.0617 7.38062 26.5827 6.42976 24.8961C6.23657 25.4226 6.34515 26.1583 6.74677 26.9763C7.29649 28.0959 8.30462 29.2249 9.58538 30.1554C10.8661 31.086 12.2514 31.6958 13.4861 31.8727C14.388 32.002 15.1213 31.8778 15.5624 31.5315C13.6648 31.1483 11.8508 30.3529 10.2742 29.2074ZM21.5535 22.8018C23.1423 21.6474 25.6436 21.878 26.6454 22.0306C28.1141 22.2544 30.095 22.8816 30.8438 23.9123C32.13 25.6825 30.6985 28.8412 27.5849 31.1034C24.4713 33.3656 21.0249 33.7508 19.7388 31.9806C18.9898 30.9498 19.0055 28.8721 19.2465 27.4061C19.411 26.4063 19.9647 23.9562 21.5535 22.8018ZM29.1837 24.0418C28.5608 23.695 27.615 23.3637 26.4688 23.189C24.6807 22.9166 23.1006 23.1262 22.2423 23.7498C21.3839 24.3734 20.6963 25.8113 20.4029 27.5962C20.2148 28.7403 20.2376 29.7421 20.3749 30.4417C22.2214 30.1189 23.9913 29.3692 25.5187 28.2595C27.0459 27.1499 28.3062 25.698 29.1837 24.0418ZM26.2075 29.2074C24.6306 30.3531 22.8171 31.1482 20.9192 31.5314C21.3603 31.8778 22.0936 32.0019 22.9956 31.8727C24.2302 31.6958 25.6155 31.086 26.8963 30.1554C28.1771 29.2248 29.1851 28.0959 29.7349 26.9763C30.1365 26.1585 30.245 25.4226 30.052 24.8962C29.101 26.5825 27.7841 28.062 26.2075 29.2074ZM23.6009 16.5007C22.994 14.633 23.9862 12.3252 24.441 11.4197C25.1077 10.092 26.3163 8.40194 27.528 8.00821C29.6091 7.33202 32.1708 9.6695 33.3601 13.3298C34.5494 16.99 33.8508 20.3868 31.7698 21.0629C30.5581 21.4567 28.5869 20.7998 27.2671 20.1175C26.3669 19.6522 24.2077 18.3685 23.6009 16.5007ZM27.1381 9.62716C26.6158 10.1124 26.0085 10.9095 25.4881 11.9457C24.6764 13.562 24.3875 15.1296 24.7154 16.1386C25.0432 17.1477 26.1983 18.246 27.8051 19.0766C28.8351 19.609 29.7949 19.8968 30.5027 19.9825C30.7663 18.1266 30.6002 16.2117 30.0168 14.4161C29.4334 12.6208 28.442 10.9735 27.1381 9.62716ZM31.1311 14.0539C31.7334 15.9077 31.9292 17.8782 31.7072 19.8015C32.1729 19.4891 32.5176 18.8301 32.6734 17.9322C32.8867 16.7034 32.7347 15.1974 32.2455 13.6918C31.7563 12.1861 30.994 10.8785 30.0992 10.0097C29.4456 9.37507 28.7793 9.04447 28.2188 9.0654C29.5289 10.4908 30.5289 12.2006 31.1311 14.0539Z" fill="black"/>
</g>
<defs>
<clipPath id="clip0_204_4176">
<rect width="40" height="40" fill="white"/>
</clipPath>
</defs>
</svg>
