<svg width="40" height="30" viewBox="0 0 40 30" fill="none" xmlns="http://www.w3.org/2000/svg">
<path d="M1.875 0H38.125C38.6223 0 39.0992 0.197544 39.4508 0.549175C39.8025 0.900805 40 1.37772 40 1.875V21.875C40 22.3723 39.8025 22.8492 39.4508 23.2008C39.0992 23.5525 38.6223 23.75 38.125 23.75H22.5V26.25H23.75C24.5785 26.251 25.3728 26.5806 25.9586 27.1664C26.5444 27.7522 26.874 28.5465 26.875 29.375C26.875 29.5408 26.8092 29.6997 26.6919 29.8169C26.5747 29.9342 26.4158 30 26.25 30H13.75C13.5842 30 13.4253 29.9342 13.3081 29.8169C13.1908 29.6997 13.125 29.5408 13.125 29.375C13.126 28.5465 13.4556 27.7522 14.0414 27.1664C14.6272 26.5806 15.4215 26.251 16.25 26.25H17.5V23.75H13.125C12.9592 23.75 12.8003 23.6842 12.6831 23.5669C12.5658 23.4497 12.5 23.2908 12.5 23.125C12.5 22.9592 12.5658 22.8003 12.6831 22.6831C12.8003 22.5658 12.9592 22.5 13.125 22.5H38.125C38.2908 22.5 38.4497 22.4342 38.5669 22.3169C38.6842 22.1997 38.75 22.0408 38.75 21.875V1.875C38.75 1.70924 38.6842 1.55027 38.5669 1.43306C38.4497 1.31585 38.2908 1.25 38.125 1.25H1.875C1.70924 1.25 1.55027 1.31585 1.43306 1.43306C1.31585 1.55027 1.25 1.70924 1.25 1.875V6.875C1.25 7.04076 1.18415 7.19973 1.06694 7.31694C0.949734 7.43415 0.79076 7.5 0.625 7.5C0.45924 7.5 0.300266 7.43415 0.18306 7.31694C0.0658493 7.19973 0 7.04076 0 6.875V1.875C0 1.37772 0.197544 0.900805 0.549175 0.549175C0.900806 0.197544 1.37772 0 1.875 0ZM14.4819 28.75H25.5181C25.3884 28.3847 25.1488 28.0684 24.8323 27.8447C24.5157 27.6209 24.1377 27.5005 23.75 27.5H16.25C15.8623 27.5005 15.4843 27.6209 15.1677 27.8447C14.8512 28.0684 14.6116 28.3847 14.4819 28.75ZM18.75 23.75V26.25H21.25V23.75H18.75Z" fill="black"/>
<path d="M1.875 30H9.375C9.87228 30 10.3492 29.8025 10.7008 29.4508C11.0525 29.0992 11.25 28.6223 11.25 28.125V10.625C11.25 10.1277 11.0525 9.65081 10.7008 9.29917C10.3492 8.94754 9.87228 8.75 9.375 8.75H1.875C1.37772 8.75 0.900806 8.94754 0.549175 9.29917C0.197545 9.65081 0 10.1277 0 10.625V28.125C0 28.6223 0.197545 29.0992 0.549175 29.4508C0.900806 29.8025 1.37772 30 1.875 30ZM9.375 10C9.54076 10 9.69973 10.0658 9.81694 10.1831C9.93415 10.3003 10 10.4592 10 10.625V28.125C10 28.2908 9.93415 28.4497 9.81694 28.5669C9.69973 28.6842 9.54076 28.75 9.375 28.75H1.875C1.70924 28.75 1.55027 28.6842 1.43306 28.5669C1.31585 28.4497 1.25 28.2908 1.25 28.125V10.625C1.25 10.4592 1.31585 10.3003 1.43306 10.1831C1.55027 10.0658 1.70924 10 1.875 10H9.375Z" fill="black"/>
<path d="M5.625 25C6.24307 25 6.84725 24.8167 7.36116 24.4733C7.87506 24.13 8.2756 23.6419 8.51212 23.0709C8.74865 22.4999 8.81053 21.8715 8.68995 21.2653C8.56937 20.6592 8.27175 20.1023 7.83471 19.6653C7.39767 19.2283 6.84085 18.9306 6.23466 18.81C5.62847 18.6895 5.00013 18.7514 4.42911 18.9879C3.85809 19.2244 3.37004 19.6249 3.02666 20.1388C2.68328 20.6527 2.5 21.2569 2.5 21.875C2.50099 22.7035 2.83055 23.4978 3.41639 24.0836C4.00222 24.6694 4.7965 24.999 5.625 25ZM5.625 20C5.99584 20 6.35835 20.11 6.66669 20.316C6.97503 20.522 7.21536 20.8149 7.35727 21.1575C7.49919 21.5001 7.53632 21.8771 7.46397 22.2408C7.39162 22.6045 7.21305 22.9386 6.95082 23.2008C6.6886 23.463 6.35451 23.6416 5.99079 23.714C5.62708 23.7863 5.25008 23.7492 4.90747 23.6073C4.56486 23.4654 4.27202 23.225 4.06599 22.9167C3.85997 22.6084 3.75 22.2458 3.75 21.875C3.75 21.3777 3.94754 20.9008 4.29917 20.5492C4.6508 20.1975 5.12772 20 5.625 20Z" fill="black"/>
<path d="M8.125 12.5C7.77982 12.5 7.5 12.2202 7.5 11.875C7.5 11.5298 7.77982 11.25 8.125 11.25C8.47018 11.25 8.75 11.5298 8.75 11.875C8.75 12.2202 8.47018 12.5 8.125 12.5Z" fill="black"/>
<path d="M5.625 12.5C5.27982 12.5 5 12.2202 5 11.875C5 11.5298 5.27982 11.25 5.625 11.25C5.97018 11.25 6.25 11.5298 6.25 11.875C6.25 12.2202 5.97018 12.5 5.625 12.5Z" fill="black"/>
<path d="M3.125 12.5C2.77982 12.5 2.5 12.2202 2.5 11.875C2.5 11.5298 2.77982 11.25 3.125 11.25C3.47018 11.25 3.75 11.5298 3.75 11.875C3.75 12.2202 3.47018 12.5 3.125 12.5Z" fill="black"/>
<path d="M8.125 15C7.77982 15 7.5 14.7202 7.5 14.375C7.5 14.0298 7.77982 13.75 8.125 13.75C8.47018 13.75 8.75 14.0298 8.75 14.375C8.75 14.7202 8.47018 15 8.125 15Z" fill="black"/>
<path d="M5.625 15C5.27982 15 5 14.7202 5 14.375C5 14.0298 5.27982 13.75 5.625 13.75C5.97018 13.75 6.25 14.0298 6.25 14.375C6.25 14.7202 5.97018 15 5.625 15Z" fill="black"/>
<path d="M3.125 15C2.77982 15 2.5 14.7202 2.5 14.375C2.5 14.0298 2.77982 13.75 3.125 13.75C3.47018 13.75 3.75 14.0298 3.75 14.375C3.75 14.7202 3.47018 15 3.125 15Z" fill="black"/>
<path d="M8.125 17.5C7.77982 17.5 7.5 17.2202 7.5 16.875C7.5 16.5298 7.77982 16.25 8.125 16.25C8.47018 16.25 8.75 16.5298 8.75 16.875C8.75 17.2202 8.47018 17.5 8.125 17.5Z" fill="black"/>
<path d="M5.625 17.5C5.27982 17.5 5 17.2202 5 16.875C5 16.5298 5.27982 16.25 5.625 16.25C5.97018 16.25 6.25 16.5298 6.25 16.875C6.25 17.2202 5.97018 17.5 5.625 17.5Z" fill="black"/>
<path d="M3.125 17.5C2.77982 17.5 2.5 17.2202 2.5 16.875C2.5 16.5298 2.77982 16.25 3.125 16.25C3.47018 16.25 3.75 16.5298 3.75 16.875C3.75 17.2202 3.47018 17.5 3.125 17.5Z" fill="black"/>
<path d="M8.125 27.5C7.77982 27.5 7.5 27.2202 7.5 26.875C7.5 26.5298 7.77982 26.25 8.125 26.25C8.47018 26.25 8.75 26.5298 8.75 26.875C8.75 27.2202 8.47018 27.5 8.125 27.5Z" fill="black"/>
<path d="M5.625 27.5C5.27982 27.5 5 27.2202 5 26.875C5 26.5298 5.27982 26.25 5.625 26.25C5.97018 26.25 6.25 26.5298 6.25 26.875C6.25 27.2202 5.97018 27.5 5.625 27.5Z" fill="black"/>
<path d="M3.125 27.5C2.77982 27.5 2.5 27.2202 2.5 26.875C2.5 26.5298 2.77982 26.25 3.125 26.25C3.47018 26.25 3.75 26.5298 3.75 26.875C3.75 27.2202 3.47018 27.5 3.125 27.5Z" fill="black"/>
</svg>
