<svg width="40" height="40" viewBox="0 0 40 40" fill="none" xmlns="http://www.w3.org/2000/svg">
<path d="M39.8641 22.8709C39.3191 19.9254 38.5758 16.8578 37.5917 13.4928C36.6138 10.1509 33.6129 7.82548 30.1247 7.70627C23.4063 7.47486 16.5935 7.47486 9.87545 7.70627C6.38707 7.82548 3.38618 10.1509 2.40815 13.493C1.4241 16.8578 0.680829 19.9255 0.135837 22.871C-0.6454 27.0939 2.01807 31.1925 6.19926 32.2017L6.34543 32.2369C6.98386 32.3912 7.62783 32.4674 8.26665 32.4674C9.78116 32.4674 11.2671 32.0389 12.5822 31.2055C14.3187 30.1051 15.542 28.4351 16.0636 26.4689C17.2461 26.3296 18.238 25.5592 18.6914 24.5041C19.1266 24.5048 19.563 24.5053 20 24.5053C20.4369 24.5053 20.8733 24.5048 21.3086 24.5041C21.762 25.5595 22.7542 26.33 23.937 26.4689C24.4687 28.4755 25.7257 30.1668 27.5135 31.2651C27.6092 31.3239 27.7151 31.3518 27.8196 31.3518C28.0166 31.3518 28.2088 31.2526 28.3195 31.0725C28.4888 30.7968 28.4026 30.436 28.1269 30.2666C26.6653 29.3687 25.6201 28.0071 25.1338 26.3904C26.5497 26.0281 27.5996 24.7416 27.5996 23.2144C27.5996 21.4069 26.1291 19.9365 24.3216 19.9365C22.5142 19.9365 21.0437 21.4069 21.0437 23.2144C21.0437 23.2541 21.0453 23.2934 21.0467 23.3327C20.3498 23.3335 19.6501 23.3335 18.9533 23.3327C18.9547 23.2934 18.9562 23.2541 18.9562 23.2144C18.9562 21.4069 17.4858 19.9365 15.6783 19.9365C13.8709 19.9365 12.4004 21.4069 12.4004 23.2144C12.4004 24.7419 13.4507 26.0286 14.867 26.3906C14.39 27.9738 13.3733 29.317 11.9551 30.2158C10.3558 31.2293 8.46133 31.5426 6.61878 31.0975L6.47449 31.0628C2.89837 30.1995 0.620283 26.695 1.28824 23.0844C1.82597 20.1783 2.56025 17.1485 3.53297 13.8222C4.36858 10.9666 6.93354 8.97953 9.91569 8.87766C10.3299 8.86336 10.7444 8.85 11.1593 8.8375C11.1709 9.12265 11.1886 9.41218 11.2143 9.70491C11.3129 10.7969 11.9477 11.7556 12.9122 12.2693C13 12.316 13.0942 12.3382 13.1872 12.3382C13.3967 12.3382 13.5995 12.2255 13.7048 12.0276C13.857 11.742 13.7487 11.3871 13.4631 11.235C12.8488 10.9078 12.4444 10.2963 12.3815 9.601C12.358 9.33241 12.3416 9.06656 12.3307 8.80469C17.4298 8.67164 22.5701 8.67164 27.6693 8.80469C27.6585 9.06648 27.6421 9.33202 27.6187 9.59975C27.5264 10.6268 26.6834 11.4315 25.6575 11.4714C22.2833 11.6033 18.8689 11.6169 15.509 11.5118C15.1854 11.4997 14.9151 11.7557 14.905 12.0792C14.8949 12.4026 15.1489 12.673 15.4723 12.6831C16.973 12.73 18.4839 12.7535 19.9979 12.7535C21.901 12.7535 23.8088 12.7163 25.7031 12.6423C27.3158 12.5797 28.641 11.3168 28.7859 9.70327C28.8114 9.41155 28.8291 9.12242 28.8406 8.83742C29.2555 8.84992 29.6702 8.86328 30.0844 8.87758C33.0663 8.97945 35.6313 10.9665 36.467 13.822C37.4398 17.1485 38.1741 20.1782 38.7117 23.0843C39.3797 26.695 37.1017 30.1995 33.5253 31.0628L33.3792 31.0979C32.2877 31.3617 31.1854 31.3603 30.103 31.0938C29.789 31.0166 29.4714 31.2084 29.394 31.5227C29.3166 31.8369 29.5087 32.1543 29.8229 32.2317C31.0893 32.5435 32.3785 32.5453 33.6545 32.237L33.8004 32.2019C37.9819 31.1923 40.6454 27.0937 39.8641 22.8709ZM24.3216 21.108C25.4829 21.108 26.4277 22.0528 26.4277 23.2141C26.4277 24.3754 25.4829 25.3201 24.3216 25.3201C23.1604 25.3201 22.2156 24.3753 22.2156 23.2141C22.2156 22.0528 23.1603 21.108 24.3216 21.108ZM13.5722 23.2141C13.5722 22.0528 14.517 21.108 15.6783 21.108C16.8395 21.108 17.7843 22.0528 17.7843 23.2141C17.7843 24.3754 16.8395 25.3201 15.6783 25.3201C14.517 25.3201 13.5722 24.3754 13.5722 23.2141Z" fill="black"/>
<path d="M11.0429 15.185C11.0057 15.184 10.9685 15.183 10.9312 15.1821C10.9303 15.1448 10.9293 15.1075 10.9282 15.0703C10.8935 13.7893 9.86467 12.7852 8.58571 12.7847H8.55118C7.27245 12.7853 6.24363 13.7893 6.20887 15.0703C6.20785 15.1076 6.20684 15.1449 6.2059 15.1821C6.16864 15.183 6.13145 15.184 6.09418 15.185C4.81319 15.2197 3.80914 16.2486 3.80859 17.5276V17.5621C3.80922 18.8408 4.81319 19.8697 6.09426 19.9044C6.13145 19.9054 6.16871 19.9064 6.2059 19.9074C6.20684 19.9446 6.20785 19.9819 6.20887 20.0191C6.24363 21.3001 7.27245 22.3041 8.55141 22.3047H8.58594C9.86467 22.3041 10.8935 21.3002 10.9282 20.0191C10.9293 19.9818 10.9303 19.9446 10.9312 19.9074C10.9685 19.9064 11.0057 19.9054 11.0429 19.9044C12.3239 19.8697 13.328 18.8408 13.3285 17.5619V17.5273C13.3279 16.2486 12.3239 15.2198 11.0429 15.185ZM12.1567 17.5616C12.1564 18.2011 11.6532 18.7156 11.0112 18.7331C10.7897 18.7391 10.5681 18.7443 10.3466 18.7486C10.0322 18.7549 9.77866 19.0083 9.77241 19.3228C9.76803 19.5443 9.7628 19.766 9.75686 19.9874C9.73944 20.6295 9.22484 21.1327 8.58571 21.133H8.55172C7.91228 21.1327 7.39776 20.6295 7.38026 19.9875C7.37424 19.766 7.36909 19.5444 7.36471 19.3228C7.35846 19.0084 7.10503 18.7549 6.7905 18.7486C6.56902 18.7443 6.34738 18.739 6.1259 18.7331C5.48388 18.7157 4.98068 18.2011 4.98037 17.5619V17.528C4.98068 16.8885 5.48388 16.374 6.12582 16.3565C6.3473 16.3505 6.56886 16.3453 6.79034 16.3409C7.10487 16.3348 7.35838 16.0813 7.36463 15.7667C7.36901 15.5452 7.37424 15.3235 7.38018 15.1021C7.3976 14.46 7.9122 13.9568 8.55133 13.9565H8.58532C9.22476 13.9568 9.73928 14.46 9.75678 15.102C9.7628 15.3235 9.76795 15.5451 9.77233 15.7667C9.77858 16.0813 10.0321 16.3348 10.3466 16.3409C10.5681 16.3453 10.7896 16.3505 11.0111 16.3565C11.6531 16.3739 12.1563 16.8885 12.1566 17.5276V17.5616H12.1567Z" fill="black"/>
<path d="M32.9448 18.0389C33.5487 18.0389 34.1166 17.8038 34.5437 17.3767C34.9708 16.9496 35.2059 16.3818 35.2059 15.7779C35.2059 15.1739 34.9708 14.606 34.5437 14.1789C34.1166 13.7518 33.5487 13.5166 32.9448 13.5166C32.3408 13.5166 31.773 13.7518 31.3459 14.1789C30.9188 14.606 30.6836 15.1739 30.6836 15.7779C30.6836 16.3818 30.9188 16.9496 31.3459 17.3767C31.773 17.8037 32.3408 18.0389 32.9448 18.0389ZM32.1745 15.0075C32.3802 14.8018 32.6538 14.6885 32.9448 14.6885C33.2358 14.6885 33.5093 14.8018 33.715 15.0075C34.1397 15.4323 34.1397 16.1233 33.715 16.548C33.5092 16.7537 33.2357 16.867 32.9448 16.867C32.6538 16.867 32.3802 16.7537 32.1745 16.548C31.7498 16.1233 31.7498 15.4322 32.1745 15.0075Z" fill="black"/>
<path d="M27.8108 17.7126C27.3837 18.1397 27.1484 18.7076 27.1484 19.3115C27.1484 19.9154 27.3837 20.4833 27.8108 20.9104C28.2378 21.3375 28.8057 21.5726 29.4097 21.5726C30.0136 21.5726 30.5815 21.3375 31.0085 20.9104C31.4356 20.4833 31.6708 19.9154 31.6708 19.3115C31.6708 18.7076 31.4356 18.1397 31.0085 17.7126C30.5815 17.2855 30.0136 17.0503 29.4097 17.0503C28.8057 17.0503 28.2379 17.2855 27.8108 17.7126ZM30.1799 20.0817C29.7552 20.5064 29.0641 20.5065 28.6395 20.0817C28.2148 19.6569 28.2148 18.9659 28.6395 18.5412C28.8518 18.3289 29.1308 18.2227 29.4097 18.2227C29.6887 18.2227 29.9676 18.3289 30.1799 18.5412C30.6046 18.966 30.6046 19.657 30.1799 20.0817Z" fill="black"/>
<path d="M18.3582 14.7969C17.4391 14.7969 16.6914 15.5446 16.6914 16.4636C16.6914 17.3827 17.4391 18.1304 18.3582 18.1304H21.8252C22.7443 18.1304 23.492 17.3827 23.492 16.4636C23.492 15.5446 22.7443 14.7969 21.8252 14.7969H18.3582ZM22.3201 16.4637C22.3201 16.7366 22.0981 16.9586 21.8252 16.9586H18.3582C18.0853 16.9586 17.8633 16.7366 17.8633 16.4637C17.8633 16.1908 18.0853 15.9688 18.3582 15.9688H21.8252C22.0981 15.9687 22.3201 16.1908 22.3201 16.4637Z" fill="black"/>
</svg>
