<svg width="50" height="50" viewBox="0 0 50 50" fill="none" xmlns="http://www.w3.org/2000/svg">
<g clip-path="url(#clip0_204_4156)">
<path d="M39.3223 10.6786C39.6401 10.9948 39.8922 11.3708 40.0641 11.7848C40.236 12.1989 40.3242 12.6429 40.3237 13.0912C40.3239 13.2465 40.3857 13.3953 40.4956 13.505C40.6055 13.6147 40.7544 13.6763 40.9096 13.6763H40.9106C40.9875 13.6761 41.0637 13.6609 41.1347 13.6313C41.2058 13.6017 41.2703 13.5585 41.3246 13.504C41.379 13.4495 41.422 13.3848 41.4513 13.3137C41.4807 13.2425 41.4957 13.1663 41.4956 13.0894C41.4937 11.8742 41.0101 10.7094 40.1509 9.85025C39.2916 8.99107 38.1268 8.50762 36.9117 8.50586H36.9107C36.7553 8.50572 36.6062 8.56731 36.4962 8.6771C36.3862 8.78688 36.3244 8.93586 36.3242 9.09126C36.3241 9.24666 36.3857 9.39575 36.4955 9.50574C36.6052 9.61572 36.7542 9.67759 36.9096 9.67773C37.3579 9.67716 37.8019 9.76529 38.216 9.93707C38.6301 10.1088 39.0061 10.3609 39.3223 10.6786Z" fill="black"/>
<path d="M36.9102 4.49609C36.7548 4.49609 36.6057 4.55783 36.4958 4.66771C36.386 4.7776 36.3242 4.92663 36.3242 5.08203C36.3242 5.23743 36.386 5.38647 36.4958 5.49635C36.6057 5.60624 36.7548 5.66797 36.9102 5.66797C38.8782 5.66975 40.765 6.45234 42.1566 7.84393C43.5482 9.23553 44.3308 11.1224 44.3325 13.0904C44.3325 13.2458 44.3943 13.3949 44.5041 13.5047C44.614 13.6146 44.7631 13.6764 44.9185 13.6764C45.0739 13.6764 45.2229 13.6146 45.3328 13.5047C45.4427 13.3949 45.5044 13.2458 45.5044 13.0904C45.5025 10.8118 44.5964 8.62709 42.9852 7.01587C41.374 5.40465 39.1893 4.49862 36.9106 4.49668L36.9102 4.49609Z" fill="black"/>
<path d="M36.9102 0.488281C36.7548 0.488281 36.6057 0.550014 36.4958 0.659898C36.386 0.769783 36.3242 0.918818 36.3242 1.07422C36.3242 1.22962 36.386 1.37865 36.4958 1.48854C36.6057 1.59842 36.7548 1.66016 36.9102 1.66016C39.9412 1.66166 42.8476 2.86642 44.9908 5.00972C47.134 7.15302 48.3387 10.0595 48.34 13.0905C48.34 13.2459 48.4018 13.395 48.5117 13.5048C48.6215 13.6147 48.7706 13.6765 48.926 13.6765C49.0814 13.6765 49.2304 13.6147 49.3403 13.5048C49.4502 13.395 49.5119 13.2459 49.5119 13.0905C49.5105 9.74871 48.1824 6.54415 45.8195 4.18108C43.4565 1.81801 40.252 0.489782 36.9102 0.488281V0.488281Z" fill="black"/>
<path d="M32.1495 7.33533C31.6408 6.82792 30.9517 6.54297 30.2332 6.54297C29.5147 6.54297 28.8255 6.82792 28.3168 7.33533L1.28067 34.3716C0.773247 34.8802 0.488281 35.5694 0.488281 36.2879C0.488281 37.0064 0.773247 37.6955 1.28067 38.2042L11.7947 48.7182C12.0464 48.9699 12.3451 49.1696 12.674 49.3058C13.0028 49.442 13.3552 49.5121 13.7111 49.5121C14.067 49.5121 14.4194 49.442 14.7482 49.3058C15.077 49.1696 15.3758 48.9699 15.6275 48.7182L42.6635 21.6821C42.9152 21.4305 43.1148 21.1317 43.251 20.8029C43.3872 20.4741 43.4573 20.1217 43.4573 19.7658C43.4573 19.4099 43.3872 19.0575 43.251 18.7287C43.1148 18.3999 42.9152 18.1011 42.6635 17.8495L32.1495 7.33533ZM41.8346 20.8535L14.7984 47.8896C14.51 48.1781 14.1187 48.3401 13.7108 48.3401C13.3028 48.3401 12.9116 48.1781 12.6231 47.8896L2.10929 37.3756C1.8213 37.0868 1.65957 36.6956 1.65957 36.2878C1.65957 35.88 1.8213 35.4888 2.10929 35.2001L29.1454 8.16433C29.4341 7.87632 29.8253 7.71458 30.2331 7.71458C30.6409 7.71458 31.0321 7.87632 31.3208 8.16433L41.8346 18.6782C41.9774 18.821 42.0908 18.9906 42.1681 19.1772C42.2454 19.3638 42.2852 19.5638 42.2852 19.7658C42.2852 19.9679 42.2454 20.1679 42.1681 20.3545C42.0908 20.5411 41.9774 20.7107 41.8346 20.8535V20.8535Z" fill="black"/>
<path d="M25.9136 18.7499C25.2061 19.4574 24.8086 20.4169 24.8086 21.4175C24.8086 22.418 25.206 23.3776 25.9135 24.085C26.621 24.7925 27.5805 25.19 28.581 25.19C29.5816 25.19 30.5411 24.7926 31.2486 24.0851C31.5989 23.7348 31.8768 23.3189 32.0664 22.8612C32.256 22.4035 32.3536 21.913 32.3536 21.4175C32.3536 20.9221 32.256 20.4316 32.0664 19.9739C31.8768 19.5162 31.599 19.1003 31.2487 18.75C30.8984 18.3997 30.4825 18.1218 30.0248 17.9322C29.5671 17.7426 29.0765 17.645 28.5811 17.645C27.5806 17.645 26.621 18.0425 25.9136 18.7499ZM31.1812 21.4172C31.1813 22.0189 30.9728 22.6019 30.5911 23.067C30.2095 23.5322 29.6784 23.8506 29.0883 23.968C28.4982 24.0854 27.8857 23.9946 27.3551 23.711C26.8244 23.4275 26.4086 22.9687 26.1783 22.4129C25.948 21.857 25.9176 21.2385 26.0922 20.6628C26.2668 20.087 26.6356 19.5896 27.1359 19.2554C27.6361 18.9211 28.2368 18.7706 28.8355 18.8295C29.4343 18.8885 29.9941 19.1532 30.4195 19.5786C30.6618 19.8196 30.8538 20.1062 30.9846 20.4218C31.1153 20.7375 31.1822 21.0759 31.1812 21.4176V21.4172Z" fill="black"/>
<path d="M23.5503 31.0293C23.0461 31.0293 22.5576 31.2041 22.1678 31.5239C21.7781 31.8437 21.5114 32.2888 21.413 32.7832C21.3146 33.2777 21.3907 33.7909 21.6284 34.2356C21.866 34.6802 22.2505 35.0287 22.7162 35.2216C23.182 35.4146 23.7003 35.44 24.1827 35.2937C24.6651 35.1474 25.0819 34.8383 25.362 34.4191C25.6421 33.9999 25.7682 33.4966 25.7188 32.9949C25.6694 32.4932 25.4476 32.0241 25.0911 31.6676C24.8892 31.4646 24.6491 31.3037 24.3846 31.1941C24.1201 31.0845 23.8366 31.0285 23.5503 31.0293V31.0293ZM24.2625 33.9204C24.0977 34.0852 23.8809 34.1878 23.649 34.2107C23.417 34.2336 23.1843 34.1753 22.9905 34.0459C22.7968 33.9164 22.6538 33.7238 22.5862 33.5008C22.5185 33.2778 22.5302 33.0382 22.6194 32.8229C22.7086 32.6075 22.8696 32.4298 23.0752 32.3199C23.2807 32.21 23.5179 32.1748 23.7465 32.2203C23.9751 32.2657 24.1809 32.389 24.3287 32.5692C24.4766 32.7493 24.5574 32.9752 24.5574 33.2082C24.5578 33.3405 24.5319 33.4716 24.4813 33.5939C24.4307 33.7162 24.3563 33.8272 24.2625 33.9205V33.9204Z" fill="black"/>
<path d="M18.2925 36.2866C17.7883 36.2866 17.2998 36.4614 16.91 36.7812C16.5203 37.101 16.2535 37.5461 16.1552 38.0405C16.0568 38.535 16.1329 39.0483 16.3706 39.4929C16.6082 39.9375 16.9927 40.286 17.4584 40.4789C17.9242 40.6719 18.4424 40.6974 18.9249 40.551C19.4073 40.4047 19.8241 40.0956 20.1042 39.6764C20.3843 39.2572 20.5104 38.7539 20.461 38.2522C20.4116 37.7505 20.1898 37.2814 19.8333 36.9249C19.6314 36.7219 19.3913 36.561 19.1268 36.4514C18.8623 36.3419 18.5787 36.2858 18.2925 36.2866ZM19.0047 39.1778C18.8399 39.3427 18.6231 39.4453 18.3911 39.4681C18.1592 39.491 17.9265 39.4328 17.7327 39.3033C17.5389 39.1738 17.396 38.9812 17.3283 38.7582C17.2607 38.5351 17.2724 38.2956 17.3616 38.0802C17.4508 37.8649 17.6119 37.6872 17.8174 37.5773C18.0229 37.4674 18.2602 37.4322 18.4888 37.4777C18.7174 37.5232 18.9231 37.6465 19.071 37.8267C19.2188 38.0068 19.2996 38.2327 19.2996 38.4657C19.2999 38.598 19.2741 38.7291 19.2234 38.8513C19.1728 38.9735 19.0985 39.0845 19.0047 39.1778Z" fill="black"/>
<path d="M18.3331 27.9902C18.6896 27.6338 18.9114 27.1647 18.9608 26.663C19.0102 26.1613 18.8841 25.658 18.604 25.2389C18.324 24.8197 17.9072 24.5107 17.4248 24.3643C16.9424 24.218 16.4241 24.2435 15.9584 24.4364C15.4927 24.6293 15.1082 24.9777 14.8706 25.4223C14.6329 25.8669 14.5568 26.3802 14.6551 26.8746C14.7535 27.369 15.0202 27.8141 15.4099 28.1339C15.7996 28.4537 16.2881 28.6285 16.7922 28.6285C17.3701 28.6282 17.9243 28.3987 18.3331 27.9902ZM16.0801 25.7373C16.221 25.5965 16.4004 25.5006 16.5958 25.4617C16.7911 25.4229 16.9936 25.4428 17.1777 25.5191C17.3617 25.5953 17.519 25.7244 17.6296 25.89C17.7403 26.0556 17.7993 26.2503 17.7993 26.4495C17.7993 26.6487 17.7403 26.8434 17.6296 27.009C17.519 27.1746 17.3617 27.3037 17.1777 27.38C16.9936 27.4562 16.7911 27.4761 16.5958 27.4373C16.4004 27.3985 16.221 27.3026 16.0801 27.1617C15.9862 27.0684 15.9117 26.9574 15.8608 26.8352C15.8099 26.713 15.7837 26.5819 15.7837 26.4495C15.7837 26.3171 15.8099 26.186 15.8608 26.0638C15.9117 25.9416 15.9862 25.8306 16.0801 25.7373Z" fill="black"/>
<path d="M9.99375 30.1661C9.68899 30.4709 9.48144 30.8591 9.39735 31.2818C9.31326 31.7046 9.35641 32.1427 9.52133 32.5409C9.68626 32.9391 9.96556 33.2794 10.3239 33.5189C10.6823 33.7583 11.1036 33.8861 11.5346 33.8861C11.9656 33.8861 12.3869 33.7583 12.7452 33.5189C13.1036 33.2794 13.3829 32.9391 13.5478 32.5409C13.7127 32.1427 13.7559 31.7046 13.6718 31.2818C13.5877 30.8591 13.3802 30.4709 13.0754 30.1661C12.874 29.9621 12.6341 29.8001 12.3696 29.6895C12.1051 29.5789 11.8213 29.522 11.5346 29.522C11.2479 29.522 10.9641 29.5789 10.6996 29.6895C10.435 29.8001 10.1951 29.9621 9.99375 30.1661V30.1661ZM12.2468 32.4192C12.1059 32.5599 11.9266 32.6557 11.7313 32.6945C11.536 32.7332 11.3337 32.7132 11.1498 32.637C10.9659 32.5608 10.8087 32.4317 10.6981 32.2662C10.5876 32.1006 10.5286 31.906 10.5286 31.707C10.5286 31.5079 10.5876 31.3133 10.6981 31.1478C10.8087 30.9822 10.9659 30.8532 11.1498 30.777C11.3337 30.7008 11.536 30.6808 11.7313 30.7195C11.9266 30.7583 12.1059 30.854 12.2468 30.9947C12.341 31.0878 12.4158 31.1987 12.4669 31.3209C12.518 31.4432 12.5442 31.5743 12.5442 31.7068C12.5442 31.8393 12.518 31.9704 12.4669 32.0926C12.4158 32.2149 12.341 32.3257 12.2468 32.4188V32.4192Z" fill="black"/>
<path d="M8.27373 38.7219C8.16382 38.612 8.01477 38.5503 7.85936 38.5503C7.70394 38.5503 7.5549 38.6121 7.44502 38.722C7.33514 38.8319 7.27342 38.9809 7.27344 39.1363C7.27346 39.2918 7.33521 39.4408 7.44512 39.5507L9.02861 41.1342C9.13852 41.2441 9.28758 41.3058 9.44299 41.3058C9.5984 41.3057 9.74744 41.244 9.85732 41.1341C9.96721 41.0242 10.0289 40.8751 10.0289 40.7197C10.0289 40.5643 9.96713 40.4153 9.85723 40.3054L8.27373 38.7219Z" fill="black"/>
<path d="M34.5842 20.5177H34.5835C34.5049 20.5772 34.4424 20.6554 34.4018 20.7453C34.3612 20.8351 34.3437 20.9337 34.3511 21.032C34.3599 21.1598 34.3644 21.2883 34.3646 21.4176C34.3629 22.7538 33.8981 24.048 33.0493 25.0799C32.2005 26.1119 31.0202 26.8177 29.7095 27.0771C28.3988 27.3365 27.0386 27.1336 25.8607 26.5028C24.6829 25.872 23.7601 24.8523 23.2495 23.6176C22.739 22.3828 22.6723 21.0092 23.0608 19.7308C23.4493 18.4523 24.269 17.3481 25.3802 16.6062C26.4914 15.8642 27.8255 15.5304 29.1552 15.6616C30.4849 15.7928 31.728 16.381 32.6728 17.3258C32.7712 17.4243 32.8656 17.5258 32.956 17.6303C33.0053 17.6908 33.0663 17.7408 33.1353 17.7774C33.2043 17.8139 33.2799 17.8364 33.3577 17.8433C33.4354 17.8503 33.5138 17.8416 33.5882 17.8178C33.6626 17.7941 33.7315 17.7557 33.7908 17.7049C33.8501 17.6541 33.8987 17.592 33.9337 17.5222C33.9687 17.4524 33.9893 17.3763 33.9945 17.2984C33.9996 17.2205 33.9892 17.1423 33.9637 17.0685C33.9382 16.9947 33.8982 16.9267 33.8461 16.8686C33.7364 16.7414 33.6216 16.6177 33.5017 16.4975C32.3631 15.3565 30.8641 14.6458 29.2602 14.4863C27.6562 14.3269 26.0466 14.7286 24.7057 15.6231C23.3648 16.5175 22.3756 17.8493 21.9067 19.3914C21.4378 20.9336 21.5183 22.5906 22.1343 24.0801C22.7504 25.5695 23.8639 26.7993 25.2851 27.5596C26.7063 28.32 28.3473 28.564 29.9282 28.2499C31.5092 27.9359 32.9323 27.0833 33.955 25.8374C34.9777 24.5916 35.5367 23.0296 35.5367 21.4178C35.5367 21.2578 35.5313 21.0988 35.5204 20.9406C35.5123 20.8359 35.4761 20.7354 35.4158 20.6494C35.3555 20.5635 35.2732 20.4953 35.1775 20.4521C35.0818 20.4089 34.9762 20.3921 34.8718 20.4037C34.7675 20.4152 34.6681 20.4546 34.5842 20.5177V20.5177Z" fill="black"/>
</g>
<defs>
<clipPath id="clip0_204_4156">
<rect width="50" height="50" fill="white"/>
</clipPath>
</defs>
</svg>
