<svg width="50" height="50" viewBox="0 0 50 50" fill="none" xmlns="http://www.w3.org/2000/svg">
<g clip-path="url(#clip0_204_4140)">
<path d="M0.961744 21.1821C0.430254 21.1821 0 21.6124 0 22.1433V26.9509C0 27.4824 0.430254 27.9127 0.961744 27.9127C1.49268 27.9127 1.92294 27.4824 1.92294 26.9509V22.1433C1.92294 21.6124 1.49268 21.1821 0.961744 21.1821V21.1821Z" fill="black"/>
<path d="M5.77424 17.2451C5.2433 17.2451 4.8125 17.6759 4.8125 18.2069V31.5194C4.8125 32.0509 5.2433 32.4812 5.77424 32.4812C6.30518 32.4812 6.73599 32.0509 6.73599 31.5194V18.2069C6.73599 17.6759 6.30518 17.2451 5.77424 17.2451Z" fill="black"/>
<path d="M10.5789 10.6055C10.048 10.6055 9.61719 11.0357 9.61719 11.5667V38.49C9.61719 39.0209 10.048 39.4517 10.5789 39.4517C11.1099 39.4517 11.5407 39.0209 11.5407 38.49V11.5667C11.5407 11.0357 11.1099 10.6055 10.5789 10.6055Z" fill="black"/>
<path d="M15.3836 15.4131C14.8527 15.4131 14.4219 15.8433 14.4219 16.3748V32.7206C14.4219 33.2516 14.8527 33.6824 15.3836 33.6824C15.9146 33.6824 16.3454 33.2516 16.3454 32.7206V16.3748C16.3454 15.8433 15.9146 15.4131 15.3836 15.4131Z" fill="black"/>
<path d="M29.9026 13.085C29.3717 13.085 28.9414 13.5152 28.9414 14.0467V35.6799C28.9414 36.2108 29.3717 36.6411 29.9026 36.6411C30.4335 36.6411 30.8643 36.2108 30.8643 35.6799V14.0467C30.8643 13.5152 30.4335 13.085 29.9026 13.085Z" fill="black"/>
<path d="M39.4227 14.4512C38.8917 14.4512 38.4609 14.882 38.4609 15.4129V34.6434C38.4609 35.1749 38.8917 35.6051 39.4227 35.6051C39.9536 35.6051 40.3839 35.1749 40.3839 34.6434V15.4129C40.3839 14.882 39.9536 14.4512 39.4227 14.4512Z" fill="black"/>
<path d="M44.2313 19.2588C43.7003 19.2588 43.2695 19.6896 43.2695 20.2205V29.8358C43.2695 30.3667 43.7003 30.7975 44.2313 30.7975C44.7622 30.7975 45.1925 30.3667 45.1925 29.8358V20.2205C45.1925 19.6896 44.7622 19.2588 44.2313 19.2588Z" fill="black"/>
<path d="M34.6141 6.75879C34.0826 6.75879 33.6523 7.18959 33.6523 7.72053V42.3356C33.6523 42.8671 34.0826 43.2974 34.6141 43.2974C35.145 43.2974 35.5753 42.8671 35.5753 42.3356V7.72053C35.5753 7.18959 35.145 6.75879 34.6141 6.75879V6.75879Z" fill="black"/>
<path d="M20.1917 22.1436C19.6607 22.1436 19.2305 22.5744 19.2305 23.1053V26.9512C19.2305 27.4827 19.6607 27.9129 20.1917 27.9129C20.7226 27.9129 21.1534 27.4827 21.1534 26.9512V23.1053C21.1534 22.5744 20.7226 22.1436 20.1917 22.1436Z" fill="black"/>
<path d="M49.0399 21.8213C48.5089 21.8213 48.0781 22.2515 48.0781 22.7825V26.9431C48.0781 27.474 48.5089 27.9048 49.0399 27.9048C49.5708 27.9048 50.0016 27.474 50.0016 26.9431V22.7825C50.0016 22.2515 49.5708 21.8213 49.0399 21.8213Z" fill="black"/>
<path d="M24.911 19.9883C24.3795 19.9883 23.9492 20.4185 23.9492 20.9495V28.7766C23.9492 29.3075 24.3795 29.7383 24.911 29.7383C25.4419 29.7383 25.8722 29.3075 25.8722 28.7766V20.9495C25.8722 20.4185 25.4419 19.9883 24.911 19.9883Z" fill="black"/>
</g>
<defs>
<clipPath id="clip0_204_4140">
<rect width="50" height="50" fill="white"/>
</clipPath>
</defs>
</svg>
