<svg width="50" height="50" viewBox="0 0 50 50" fill="none" xmlns="http://www.w3.org/2000/svg">
<path d="M38.5832 9.12158H3.95312C3.52188 9.12158 3.17188 9.47158 3.17188 9.90283V25.6829V32.8271C3.17188 33.2583 3.52188 33.6083 3.95312 33.6083H30.6262H38.5832C39.0145 33.6083 39.3645 33.2583 39.3645 32.8271V27.9505V9.90283C39.3645 9.47119 39.0148 9.12158 38.5832 9.12158ZM4.73438 10.6841H37.802V26.0645L30.5641 18.8263C30.4113 18.6735 30.2117 18.5974 30.0117 18.5974C29.8117 18.5974 29.6121 18.6735 29.4594 18.8263L23.5945 24.6911L14.2699 15.3661C13.977 15.0731 13.4582 15.0731 13.1652 15.3661L4.73438 23.797V10.6841ZM4.73438 26.0063L13.7176 17.0231L23.0422 26.3481L28.7402 32.0458H4.73438V26.0063ZM30.9496 32.0458L24.6992 25.7958L30.0117 20.4833L37.802 28.2735V32.0454H30.9496V32.0458Z" fill="black"/>
<path d="M23.8281 18.8947C25.4687 18.8947 26.8039 17.5596 26.8039 15.9186C26.8039 14.2775 25.4687 12.9424 23.8281 12.9424C22.1867 12.9424 20.8516 14.2775 20.8516 15.9186C20.8516 17.5596 22.1867 18.8947 23.8281 18.8947V18.8947ZM23.8281 14.5049C24.6074 14.5049 25.2414 15.1393 25.2414 15.9186C25.2414 16.6979 24.6074 17.3322 23.8281 17.3322C23.0484 17.3322 22.4141 16.6979 22.4141 15.9186C22.4141 15.1393 23.0484 14.5049 23.8281 14.5049V14.5049Z" fill="black"/>
<path d="M36.973 35.221C36.668 34.9159 36.1734 34.9159 35.8684 35.221C35.5633 35.5257 35.5633 36.0206 35.8684 36.3257L36.6965 37.1542H7.9375L8.76641 36.3257C9.07148 36.021 9.07148 35.5261 8.76641 35.221C8.46133 34.9159 7.9668 34.9159 7.66172 35.221L5.49844 37.3839C5.35195 37.5304 5.26953 37.7292 5.26953 37.9362C5.26953 38.1437 5.35195 38.3425 5.49883 38.489L7.66211 40.6499C7.81445 40.8022 8.01406 40.8784 8.21406 40.8784C8.41406 40.8784 8.61406 40.8022 8.7668 40.6491C9.07148 40.344 9.07148 39.8491 8.76602 39.5444L7.9375 38.7167H36.6969L35.8684 39.5444C35.5633 39.8495 35.5633 40.3444 35.868 40.6495C36.0207 40.8022 36.2207 40.8784 36.4207 40.8784C36.6207 40.8784 36.8203 40.8022 36.973 40.6499L39.1352 38.489C39.2816 38.3425 39.3641 38.1437 39.3641 37.9362C39.3641 37.7292 39.2816 37.5304 39.1352 37.3839L36.973 35.221Z" fill="black"/>
<path d="M45.4898 30.1125L44.6617 30.9403V12.4075L45.4894 13.236C45.7945 13.5411 46.2894 13.5407 46.5945 13.2364C46.8996 12.9313 46.8996 12.4364 46.5949 12.1313L44.4324 9.96724C44.1386 9.67427 43.6199 9.67427 43.3269 9.96763L41.166 12.1317C40.8613 12.4368 40.8617 12.9317 41.1667 13.2364C41.3195 13.3887 41.5187 13.4649 41.7187 13.4649C41.9191 13.4649 42.1187 13.3887 42.2714 13.2356L43.0992 12.4067V30.9407L42.2714 30.1125C41.9664 29.8075 41.4714 29.8079 41.1664 30.1122C40.8613 30.4172 40.8613 30.9122 41.166 31.2172L43.3269 33.3793C43.4734 33.5258 43.6722 33.6083 43.8796 33.6083C44.0867 33.6083 44.2855 33.5258 44.432 33.3793L46.5945 31.2172C46.8996 30.9125 46.8996 30.4176 46.5945 30.1125C46.2894 29.8075 45.7949 29.8075 45.4898 30.1125V30.1125Z" fill="black"/>
</svg>
